<svg xmlns="http://www.w3.org/2000/svg" xmlns:xlink="http://www.w3.org/1999/xlink" width="500" zoomAndPan="magnify" viewBox="0 0 375 374.999991" height="500" preserveAspectRatio="xMidYMid meet" version="1.0"><defs><clipPath id="53d4f93d99"><path d="M 142.183594 187.5 L 161.246094 187.5 L 161.246094 206.5625 L 142.183594 206.5625 Z M 142.183594 187.5 " clip-rule="nonzero"/></clipPath><clipPath id="b1b09f2057"><path d="M 151.714844 187.5 C 146.453125 187.5 142.183594 191.765625 142.183594 197.03125 C 142.183594 202.296875 146.453125 206.5625 151.714844 206.5625 C 156.980469 206.5625 161.246094 202.296875 161.246094 197.03125 C 161.246094 191.765625 156.980469 187.5 151.714844 187.5 Z M 151.714844 187.5 " clip-rule="nonzero"/></clipPath><clipPath id="1662a558c2"><path d="M 256 124.046875 L 276 124.046875 L 276 139 L 256 139 Z M 256 124.046875 " clip-rule="nonzero"/></clipPath><clipPath id="2934b89e45"><path d="M 252 124.046875 L 280 124.046875 L 280 143 L 252 143 Z M 252 124.046875 " clip-rule="nonzero"/></clipPath><clipPath id="bd93bbc496"><path d="M 69 124.046875 L 310.484375 124.046875 L 310.484375 289 L 69 289 Z M 69 124.046875 " clip-rule="nonzero"/></clipPath><clipPath id="5c9ec80061"><path d="M 249 124.046875 L 276 124.046875 L 276 144 L 249 144 Z M 249 124.046875 " clip-rule="nonzero"/></clipPath><clipPath id="2eb0bbfc84"><path d="M 245 124.046875 L 280 124.046875 L 280 147 L 245 147 Z M 245 124.046875 " clip-rule="nonzero"/></clipPath><clipPath id="9bd4d9e812"><path d="M 95 274 L 116 274 L 116 289.046875 L 95 289.046875 Z M 95 274 " clip-rule="nonzero"/></clipPath></defs><g clip-path="url(#53d4f93d99)"><g clip-path="url(#b1b09f2057)"><path fill="#000000" d="M 142.183594 187.5 L 161.246094 187.5 L 161.246094 206.5625 L 142.183594 206.5625 Z M 142.183594 187.5 " fill-opacity="1" fill-rule="nonzero"/></g></g><g clip-path="url(#1662a558c2)"><path fill="#f5f2e6" d="M 275.183594 133.992188 C 275.183594 133.992188 273.453125 133.199219 272.589844 132.046875 C 271.460938 130.8125 270.789062 129.015625 270 128.804688 C 268.988281 128.5625 267.410156 127.210938 266.757812 126.539062 C 266.0625 125.863281 264.261719 125.636719 263.515625 125.566406 C 262.910156 125.1875 260.660156 124.964844 259.949219 124.917969 C 259.308594 124.964844 258.65625 125.890625 258.65625 125.890625 L 256.710938 126.214844 L 256.710938 127.1875 L 258.332031 138.851562 L 275.183594 133.992188 " fill-opacity="1" fill-rule="nonzero"/></g><g clip-path="url(#2934b89e45)"><path stroke-linecap="butt" transform="matrix(-0.324111, 0, 0, -0.324034, 313.186215, 290.58001)" fill="none" stroke-linejoin="miter" d="M 117.251998 483.245375 C 117.251998 483.245375 122.591128 485.692554 125.254667 489.2488 C 128.737756 493.058202 130.810736 498.603535 133.245283 499.254509 C 136.366805 500.001923 141.235899 504.172978 143.248618 506.24645 C 145.393911 508.331977 150.949981 509.031171 153.251953 509.248162 C 155.120046 510.417504 162.06212 511.104643 164.255622 511.249304 C 166.232185 511.104643 168.244904 508.247591 168.244904 508.247591 L 174.246905 507.247021 L 174.246905 504.245308 L 169.245237 468.248867 Z M 117.251998 483.245375 " stroke="#000000" stroke-width="2.083" stroke-opacity="1" stroke-miterlimit="4"/></g><path fill="#dbd6d1" d="M 299.167969 177.410156 C 299.167969 177.410156 298.246094 178.519531 296.898438 178.058594 C 295.546875 177.84375 293.855469 177.84375 292.6875 176.761719 C 291.832031 175.816406 290.820312 173.792969 289.121094 173.847656 C 287.445312 173.792969 285.230469 170.605469 285.230469 170.605469 L 288.472656 168.664062 L 299.167969 177.410156 " fill-opacity="1" fill-rule="nonzero"/><path stroke-linecap="butt" transform="matrix(-0.324111, 0, 0, -0.324034, 313.186215, 290.58001)" fill="none" stroke-linejoin="miter" d="M 43.251422 349.253266 C 43.251422 349.253266 46.095743 345.829626 50.253756 347.252124 C 54.423821 347.915153 59.642429 347.915153 63.24604 351.254407 C 65.885474 354.171735 69.006997 360.416261 74.249709 360.24749 C 79.420107 360.416261 86.253711 370.253199 86.253711 370.253199 L 76.250376 376.244569 Z M 43.251422 349.253266 " stroke="#000000" stroke-width="2.083" stroke-opacity="1" stroke-miterlimit="4"/><path fill="#dbd6d1" d="M 117.992188 278.832031 C 117.199219 276.3125 117.019531 272.675781 117.019531 272.675781 C 117.019531 272.675781 113.234375 269.988281 113.128906 269.113281 C 113.234375 267.964844 114.582031 265.265625 113.777344 264.253906 C 113.234375 263.238281 105.03125 245.433594 105.027344 243.191406 C 105.804688 233.199219 105.675781 218.886719 105.675781 218.886719 L 128.6875 219.210938 C 128.6875 219.210938 116.273438 226.109375 117.019531 248.699219 C 117.15625 255.679688 119.984375 263.238281 121.554688 265.546875 C 121.554688 265.546875 123.363281 272.015625 125.445312 273.324219 C 125.445312 273.324219 126.675781 275.371094 128.039062 277.539062 L 117.992188 278.832031 " fill-opacity="1" fill-rule="nonzero"/><path stroke-linecap="butt" transform="matrix(-0.324111, 0, 0, -0.324034, 313.186215, 290.58001)" fill="none" stroke-linejoin="miter" d="M 602.245029 36.255414 C 604.691627 44.030934 605.246029 55.254205 605.246029 55.254205 C 605.246029 55.254205 616.924622 63.548093 617.250032 66.248429 C 616.924622 69.79262 612.766609 78.122674 615.249364 81.244937 C 616.924622 84.379255 642.234265 139.326267 642.246318 146.245877 C 639.847928 177.082748 640.24565 221.252526 640.24565 221.252526 L 569.246074 220.251956 C 569.246074 220.251956 607.548002 198.962701 605.246029 129.248228 C 604.824202 107.705817 596.098401 84.379255 591.253412 77.254709 C 591.253412 77.254709 585.673238 57.291512 579.24941 53.253063 C 579.24941 53.253063 575.452963 46.936206 571.246741 40.245642 Z M 602.245029 36.255414 " stroke="#000000" stroke-width="2.083" stroke-opacity="1" stroke-miterlimit="4"/><path fill="#dbd6d1" d="M 216.84375 237.035156 L 213.925781 250.96875 C 213.925781 250.96875 215.726562 252.582031 210.6875 257.449219 C 209.117188 259.1875 205.738281 265.601562 206.472656 269.4375 C 207.226562 273.769531 210.460938 279.398438 209.390625 279.804688 C 206.90625 280.738281 198.179688 280.734375 197.722656 279.15625 C 196.625 276.066406 199.988281 275.308594 199.34375 273.972656 C 198.660156 272.773438 196.914062 273.695312 197.398438 271.382812 C 197.683594 268.984375 200.089844 268.9375 200.640625 265.871094 C 201.261719 262.941406 201.371094 257.21875 201.285156 256.152344 C 201.332031 255.085938 201.183594 251.6875 201.609375 249.996094 C 202.195312 248.464844 204.527344 244.484375 204.527344 244.484375 L 206.472656 219.859375 L 223.003906 223.746094 L 216.84375 237.035156 " fill-opacity="1" fill-rule="nonzero"/><path stroke-linecap="butt" transform="matrix(-0.324111, 0, 0, -0.324034, 313.186215, 290.58001)" fill="none" stroke-linejoin="miter" d="M 297.251772 165.244669 L 306.254774 122.244232 C 306.254774 122.244232 300.698705 117.265488 316.246057 102.24487 C 321.091046 96.880363 331.516209 77.085938 329.250393 65.247858 C 326.924316 51.878785 316.945085 34.507428 320.247391 33.253701 C 327.912598 30.372539 354.837237 30.384594 356.247346 35.254843 C 359.634017 44.790404 349.257064 47.129087 351.245678 51.251921 C 353.354815 54.952828 358.742154 52.107831 357.24768 59.244433 C 356.367868 66.646247 348.943706 66.790907 347.244344 76.254138 C 345.328043 85.295441 344.990581 102.956119 345.25573 106.247153 C 345.111103 109.538188 345.569087 120.026099 344.255396 125.245945 C 342.447564 129.971532 335.252394 142.255649 335.252394 142.255649 L 329.250393 218.250814 L 278.245435 206.256019 Z M 297.251772 165.244669 " stroke="#000000" stroke-width="2.083" stroke-opacity="1" stroke-miterlimit="4"/><path fill="#f5f2e6" d="M 249.902344 206.898438 C 250.078125 205.863281 250.238281 205.046875 250.226562 204.628906 C 250.644531 201.808594 258.070312 189.992188 259.625 185.835938 C 261.445312 181.894531 261.109375 180.878906 263.191406 179.679688 C 268.199219 176.15625 272.914062 175.144531 272.914062 175.144531 C 273.9375 174.128906 275.289062 175.480469 276.480469 176.113281 C 277.988281 176.832031 279.003906 174.804688 280.371094 174.496094 C 281.703125 174.128906 282.964844 175.46875 282.964844 175.46875 L 285.878906 175.144531 C 287.273438 174.804688 290.144531 171.765625 291.714844 173.199219 C 293.519531 174.46875 298.246094 177.507812 299.167969 177.410156 C 300.273438 177.507812 303.058594 176.761719 303.058594 176.761719 C 305.222656 175.59375 304.324219 173.792969 305.652344 173.523438 C 307.023438 173.117188 307.363281 172.78125 308.566406 171.578125 C 310.0625 170.078125 308.375 166.367188 307.59375 165.421875 C 307.375 164.867188 305.972656 163.464844 302.410156 159.914062 C 300.105469 157.761719 299.988281 156.242188 298.519531 155.054688 C 296.449219 152.832031 296.558594 152.414062 295.277344 151.164062 C 294.082031 150.164062 295.546875 150.164062 293.984375 147.601562 C 292.414062 145.15625 293.40625 144.652344 292.363281 142.414062 C 292.363281 142.414062 288.457031 137.675781 286.851562 136.582031 C 286.851562 136.582031 285.925781 135.3125 286.527344 134.960938 C 286.9375 134.300781 284.582031 133.019531 284.582031 133.019531 L 284.257812 130.101562 L 282.316406 129.128906 L 281.019531 129.453125 L 277.777344 128.804688 L 278.101562 129.777344 L 276.480469 129.777344 L 274.535156 129.453125 L 274.535156 130.75 C 269.042969 130.25 266.378906 131.53125 261.894531 133.992188 C 256.046875 137 252.820312 135.933594 252.820312 135.933594 C 252.820312 135.933594 243.132812 139.761719 233.050781 140.796875 C 231.050781 141.015625 229.003906 141.117188 226.890625 141.121094 C 211.308594 140.546875 193.832031 144.359375 193.832031 144.359375 C 193.832031 144.359375 188.078125 145.800781 183.136719 146.628906 C 181.324219 146.90625 179.554688 147.128906 178.273438 147.277344 C 174.339844 147.128906 145.398438 149.691406 139.707031 148.894531 C 132.816406 147.800781 128.089844 146.789062 109.886719 145.332031 C 91.625 144.089844 82.753906 145.785156 75.207031 156.347656 C 71.796875 160.71875 73.398438 190.292969 83.3125 206.898438 L 249.902344 206.898438 " fill-opacity="1" fill-rule="nonzero"/><path fill="#f5f2e6" d="M 83.3125 206.898438 C 84.566406 209.035156 85.996094 210.972656 87.523438 212.730469 C 89.40625 214.507812 94.449219 213.09375 94.980469 225.367188 C 95.308594 229.042969 97.320312 231.234375 95.949219 236.710938 C 94.972656 240.835938 92.375 241.394531 93.683594 243.839844 C 94.929688 246.609375 95.816406 253.183594 95.949219 254.855469 C 95.929688 256.625 96.328125 261.613281 96.921875 266.519531 C 97.910156 272.222656 95.886719 275.121094 96.273438 276.890625 C 96.496094 279.910156 99.84375 273.1875 98.542969 280.777344 C 98.4375 282.054688 98.253906 282.871094 98.21875 283.695312 L 108.589844 280.453125 C 108.035156 279.617188 104.898438 275.148438 104.378906 273.972656 C 102.429688 268.976562 102.871094 251.242188 104.378906 246.429688 C 106.398438 240.371094 116.292969 235.496094 116.046875 224.070312 C 116.046875 224.070312 125.554688 218.515625 130.308594 219.535156 C 134.839844 220.371094 146.792969 225.164062 148.132812 226.339844 C 148.542969 226.339844 148.960938 226.40625 149.429688 226.339844 C 158.472656 227.460938 157.800781 229.824219 164.339844 228.609375 C 170.628906 227.125 188.859375 225.773438 193.183594 226.015625 C 197.636719 226.449219 211.789062 229.84375 213.925781 232.496094 C 221.609375 242.648438 220.257812 246.023438 219.761719 248.375 C 219.363281 252.300781 219.988281 255.757812 220.410156 258.09375 C 220.59375 261.195312 223.609375 263.902344 223.652344 266.519531 C 223.617188 269.34375 225.566406 275.253906 224.945312 275.917969 C 222.285156 278.429688 223.082031 279.144531 224.621094 279.804688 C 226.351562 280.226562 224.945312 281.75 224.945312 281.75 C 225.53125 282.890625 224.300781 284.992188 224.300781 284.992188 L 234.996094 283.046875 L 237.261719 281.425781 C 237.082031 280.640625 236.90625 279.855469 236.613281 279.15625 C 235.976562 276.65625 233.050781 273.972656 233.050781 273.972656 C 233.050781 273.972656 231.226562 264.664062 230.78125 263.28125 C 230.21875 261.816406 231.742188 258.871094 231.753906 256.152344 C 231.734375 253.429688 231.738281 254.125 232.078125 248.699219 C 232.410156 243.324219 229.375 240.960938 233.050781 230.554688 C 233.878906 228.273438 241.667969 222.59375 241.800781 222.453125 C 245.46875 218.679688 247.882812 213.140625 249.253906 209.167969 C 249.4375 208.28125 249.648438 207.535156 249.902344 206.898438 L 83.3125 206.898438 " fill-opacity="1" fill-rule="nonzero"/><g clip-path="url(#bd93bbc496)"><path stroke-linecap="butt" transform="matrix(-0.324111, 0, 0, -0.324034, 313.186215, 290.58001)" fill="none" stroke-linejoin="miter" d="M 509.250167 198.251452 C 507.984685 198.251452 506.695098 198.046516 505.248833 198.251452 C 477.347964 194.791647 479.420944 187.498329 459.245543 191.247456 C 439.841483 195.828383 383.593813 199.999437 370.252016 199.252023 C 356.512495 197.91391 312.847334 187.438054 306.254774 179.252661 C 282.548075 147.921532 286.71814 137.505951 288.248771 130.248799 C 289.478096 118.133453 287.549742 107.464715 286.248104 100.255783 C 285.68165 90.684057 276.377343 82.329893 276.244768 74.252996 C 276.353238 65.53718 270.339185 47.297858 272.255486 45.248496 C 280.463042 37.497086 278.004391 35.291008 273.25582 33.253701 C 267.91669 31.951753 272.255486 27.250276 272.255486 27.250276 C 270.447655 23.730195 274.244101 17.244567 274.244101 17.244567 L 241.245147 23.247992 L 234.254865 28.250847 C 234.809266 30.673916 235.351616 33.096985 236.255532 35.254843 C 238.220042 42.970088 247.247148 51.251921 247.247148 51.251921 C 247.247148 51.251921 252.875531 79.979155 254.249483 84.24665 C 255.985001 88.767301 251.284639 97.856824 251.248482 106.247153 C 251.308743 114.649537 251.296691 112.503735 250.248149 129.248228 C 249.223711 145.836005 258.588279 153.129323 247.247148 185.244031 C 244.692079 192.284192 220.65997 209.812265 220.250195 210.246247 C 208.933169 221.891445 201.484902 238.985535 197.254576 251.245542 C 195.482901 257.767335 194.349993 262.878685 194.253576 265.253534 C 192.963989 273.957295 170.052736 310.423883 165.255955 323.250479 C 159.639625 335.414045 160.676115 338.548363 154.252287 342.24927 C 138.801352 353.122943 124.254333 356.245207 124.254333 356.245207 C 121.096654 359.379525 116.926589 355.208471 113.250664 353.255549 C 108.598511 351.037416 105.464936 357.293998 101.246662 358.246348 C 97.136858 359.379525 93.243994 355.244636 93.243994 355.244636 L 84.253044 356.245207 C 79.950405 357.293998 71.092029 366.672843 66.247041 362.248632 C 60.678919 358.330734 46.095743 348.951889 43.251422 349.253266 C 39.840646 348.951889 31.247419 351.254407 31.247419 351.254407 C 24.570494 354.858874 27.342503 360.416261 23.244751 361.248061 C 19.014425 362.501788 17.965883 363.538524 14.253802 367.251486 C 9.637805 371.880633 14.84436 383.33295 17.254802 386.250277 C 17.929726 387.962097 22.25647 392.289868 33.248086 403.247927 C 40.358891 409.890271 40.720457 414.579693 45.252089 418.244435 C 51.639761 425.10377 51.302299 426.393662 55.255424 430.251285 C 58.943401 433.337383 54.423821 433.337383 59.244706 441.245509 C 64.089695 448.791983 61.028433 450.347087 64.246374 457.254643 C 64.246374 457.254643 76.298585 471.877444 81.252044 475.252863 C 81.252044 475.252863 84.108418 479.170761 82.252377 480.255718 C 80.986895 482.293024 88.254378 486.247088 88.254378 486.247088 L 89.254712 495.252225 L 95.244661 498.253938 L 99.245995 497.253367 L 109.24933 499.254509 L 108.248997 496.252796 L 113.250664 496.252796 L 119.252665 497.253367 L 119.252665 493.251084 C 136.198074 494.794133 144.417682 490.840069 158.253621 483.245375 C 176.295781 473.962971 186.250907 477.254005 186.250907 477.254005 C 186.250907 477.254005 216.140391 465.440036 247.247148 462.245442 C 253.41788 461.570358 259.733239 461.256926 266.253485 461.244871 C 314.329756 463.016967 368.251348 451.251218 368.251348 451.251218 C 368.251348 451.251218 386.004256 446.802897 401.250303 444.247222 C 406.842529 443.391312 412.30218 442.704173 416.255306 442.24608 C 428.391882 442.704173 517.686715 434.796046 535.246787 437.255281 C 556.506887 440.630701 571.090063 443.752964 627.253367 448.249505 C 683.597454 452.083018 710.968026 446.851117 734.252898 414.254206 C 746.088169 398.956322 738.278336 284.372876 696.252276 240.251318 C 690.44311 234.766261 674.883705 239.130196 673.244605 201.253164 C 672.232219 189.909343 666.02533 183.146448 670.255656 166.245239 C 673.268709 153.515085 681.28343 151.79121 677.245939 144.244736 C 673.401283 135.697691 670.665432 115.409007 670.255656 110.249437 C 670.315917 104.78849 669.086592 89.394165 667.254656 74.252996 C 664.205446 56.652593 670.448492 47.707731 669.255323 42.246784 C 668.568347 32.928214 658.239602 53.674991 662.252988 30.251988 C 662.578398 26.30998 663.144852 23.790471 663.253322 21.246851 L 631.254701 31.252559 C 632.966115 33.832344 642.644041 47.623345 644.246985 51.251921 C 650.261038 66.670357 648.899138 121.400377 644.246985 136.252224 C 638.015991 154.949638 607.48774 169.994366 608.24703 205.255448 C 608.24703 205.255448 578.911948 222.397758 564.244407 219.251385 C 550.263842 216.6716 513.384076 201.880028 509.250167 198.251452 Z M 509.250167 198.251452 " stroke="#000000" stroke-width="2.083" stroke-opacity="1" stroke-miterlimit="4"/></g><path fill="#000000" d="M 73.585938 218.5625 C 73.480469 217.417969 73.816406 212.019531 74.234375 209.816406 C 74.492188 207.292969 73.816406 205.269531 73.585938 202.6875 C 73.140625 199.867188 72.71875 189.992188 72.289062 188.753906 C 72.042969 187.292969 72.042969 165.015625 72.289062 161.535156 C 72.71875 158.265625 76.179688 156.023438 76.179688 156.023438 C 76.179688 156.023438 75.082031 175.144531 75.53125 180.976562 C 75.757812 186.621094 74.828125 193.792969 76.179688 198.472656 C 77.53125 203.242188 77.191406 204.253906 76.828125 210.136719 C 76.519531 215.730469 75.84375 220.796875 75.855469 221.804688 C 75.855469 221.804688 75.84375 222.820312 76.503906 226.339844 C 77.191406 229.570312 78.207031 226.699219 76.503906 232.171875 C 74.828125 237.839844 75 239.191406 75.855469 242.542969 C 76.6875 245.605469 76.828125 245.78125 76.828125 245.78125 C 76.828125 245.78125 73.648438 240.203125 73.585938 236.0625 C 73.585938 236.0625 73.480469 233.621094 73.910156 233.144531 C 74.15625 232.609375 71.621094 235.984375 71.96875 239.625 C 71.96875 239.625 72.972656 246.617188 71.644531 248.375 C 70.609375 250.328125 69.699219 251.613281 69.699219 251.613281 C 69.699219 251.613281 70.949219 248.304688 70.671875 246.429688 C 70.273438 244.589844 69.375 241.894531 69.375 241.894531 C 69.375 241.894531 69.089844 244.421875 69.375 245.457031 C 69.765625 246.785156 69.699219 248.375 69.699219 248.375 C 69.699219 248.375 68.753906 248.808594 68.402344 246.429688 C 67.738281 244.085938 67.105469 242.867188 67.105469 242.867188 L 66.78125 244.484375 C 66.78125 244.484375 65.039062 242.902344 65.160156 241.570312 C 65.378906 240.203125 64.53125 235.8125 66.78125 231.523438 C 69.257812 227.039062 69.699219 226.664062 69.699219 226.664062 C 69.699219 226.664062 66.726562 228.894531 66.457031 229.582031 C 66.050781 230.582031 66.558594 227.546875 67.429688 226.988281 C 68.246094 226.195312 69.089844 225.6875 70.671875 224.070312 C 72.46875 222.3125 73.480469 220.625 73.585938 218.5625 " fill-opacity="1" fill-rule="nonzero"/><g clip-path="url(#5c9ec80061)"><path fill="#f5f2e6" d="M 275.832031 137.554688 C 273.433594 137.507812 273.9375 137.675781 273.5625 137.554688 C 272.925781 137.339844 270.054688 136.496094 269.027344 135.933594 C 268.03125 135.144531 268.03125 131.09375 263.191406 127.1875 C 263.191406 127.1875 262.628906 126.707031 261.246094 125.890625 C 259.589844 125.019531 259.949219 125.566406 259.949219 125.566406 C 259.949219 125.566406 260.265625 125.863281 258.65625 125.242188 C 256.886719 124.511719 255.738281 124.59375 255.738281 124.59375 C 255.738281 124.59375 256.382812 125.523438 255.738281 125.242188 C 255.367188 125.1875 256.214844 124.851562 254.441406 124.917969 C 252.5 124.851562 251.523438 125.242188 251.523438 125.242188 C 251.523438 125.242188 251.65625 125.695312 250.875 125.890625 C 249.96875 126.03125 249.125 126.371094 249.253906 126.863281 C 249.125 127.382812 250.226562 127.835938 250.226562 127.835938 L 250.550781 128.15625 C 250.550781 128.15625 250.980469 128.5625 250.875 129.128906 C 250.644531 129.574219 250.875 130.75 250.875 130.75 L 250.226562 131.722656 L 250.550781 133.34375 L 251.523438 133.667969 C 251.523438 133.667969 251.488281 134.640625 251.523438 135.285156 C 251.824219 135.652344 255.03125 137.675781 255.089844 138.203125 C 255.367188 139.027344 256.710938 138.851562 256.710938 138.851562 L 257.683594 140.148438 L 259.304688 139.5 L 263.191406 141.445312 L 263.839844 141.121094 L 264.8125 141.121094 L 266.757812 141.445312 L 267.40625 140.796875 C 267.40625 140.796875 268.367188 140.039062 269.351562 139.5 C 270.054688 139.027344 268.535156 140.546875 268.378906 141.445312 C 268.199219 142.234375 269.027344 141.445312 269.027344 141.445312 L 270.324219 140.472656 C 270.324219 140.472656 269.550781 142.066406 269.675781 142.414062 C 269.886719 143.078125 270.648438 142.738281 270.648438 142.738281 C 270.648438 142.738281 272.082031 140.546875 272.589844 140.472656 C 273.09375 140.207031 272.417969 142.066406 272.265625 142.414062 C 272.417969 143.078125 273.5625 143.0625 273.5625 143.0625 " fill-opacity="1" fill-rule="nonzero"/></g><g clip-path="url(#2eb0bbfc84)"><path stroke-linecap="butt" transform="matrix(-0.324111, 0, 0, -0.324034, 313.186215, 290.58001)" fill="none" stroke-linejoin="miter" d="M 115.251331 472.251151 C 122.651389 472.395812 121.096654 471.877444 122.253666 472.251151 C 124.218176 472.91418 133.076552 475.518075 136.246283 477.254005 C 139.319597 479.689129 139.319597 492.190237 154.252287 504.245308 C 154.252287 504.245308 155.987805 505.728082 160.254288 508.247591 C 165.364425 510.935872 164.255622 509.248162 164.255622 509.248162 C 164.255622 509.248162 163.279393 508.331977 168.244904 510.248733 C 173.704556 512.503031 177.247906 512.249875 177.247906 512.249875 C 177.247906 512.249875 175.259291 509.380768 177.247906 510.248733 C 178.392866 510.417504 175.777536 511.45424 181.24924 511.249304 C 187.239189 511.45424 190.252241 510.248733 190.252241 510.248733 C 190.252241 510.248733 189.842466 508.850345 192.252909 508.247591 C 195.049022 507.813609 197.652299 506.764818 197.254576 505.245879 C 197.652299 503.642554 194.253576 502.244166 194.253576 502.244166 L 193.253242 501.25565 C 193.253242 501.25565 191.927499 500.001923 192.252909 498.253938 C 192.963989 496.87966 192.252909 493.251084 192.252909 493.251084 L 194.253576 490.249371 L 193.253242 485.246517 L 190.252241 484.245946 C 190.252241 484.245946 190.360711 481.244233 190.252241 479.255147 C 189.324221 478.12197 179.429356 471.877444 179.248573 470.250009 C 178.392866 467.706389 174.246905 468.248867 174.246905 468.248867 L 171.245904 464.246584 L 166.244237 466.247726 L 154.252287 460.2443 L 152.25162 461.244871 L 149.250619 461.244871 L 143.248618 460.2443 L 141.247951 462.245442 C 141.247951 462.245442 138.283107 464.584126 135.24595 466.247726 C 133.076552 467.706389 137.764862 463.016967 138.24695 460.2443 C 138.801352 457.809176 136.246283 460.2443 136.246283 460.2443 L 132.244949 463.246013 C 132.244949 463.246013 134.631287 458.327544 134.245616 457.254643 C 133.594797 455.205281 131.244616 456.254072 131.244616 456.254072 C 131.244616 456.254072 126.821454 463.016967 125.254667 463.246013 C 123.699931 464.065758 125.784964 458.327544 126.255 457.254643 C 125.784964 455.205281 122.253666 455.253501 122.253666 455.253501 " stroke="#000000" stroke-width="2.083" stroke-opacity="1" stroke-miterlimit="4"/></g><path fill="#000000" d="M 126.09375 274.296875 C 126.09375 274.296875 130.453125 278.765625 130.308594 279.804688 C 130.453125 280.792969 127.75 281.128906 125.445312 281.425781 C 123.023438 281.804688 121 280.453125 119.933594 280.128906 C 118.972656 279.78125 117.667969 279.15625 117.667969 279.15625 C 117.621094 277.417969 117.992188 275.917969 117.992188 275.917969 L 119.609375 276.890625 L 120.257812 275.59375 L 123.175781 276.890625 L 124.148438 275.59375 L 125.121094 273.324219 L 126.09375 274.296875 " fill-opacity="1" fill-rule="nonzero"/><path fill="#000000" d="M 201.933594 279.15625 C 201.933594 279.15625 200.339844 279.101562 199.019531 278.507812 C 197.636719 277.753906 198.046875 276.242188 198.046875 276.242188 L 197.722656 280.128906 L 198.371094 281.425781 C 201.6875 284.167969 205.175781 283.695312 205.175781 283.695312 C 205.175781 283.695312 211.480469 285.179688 213.277344 283.371094 C 214.382812 282.273438 208.417969 274.296875 208.417969 274.296875 L 208.09375 277.214844 L 206.472656 277.214844 L 206.472656 278.1875 L 204.527344 278.507812 L 202.90625 279.480469 L 201.933594 279.15625 " fill-opacity="1" fill-rule="nonzero"/><path fill="#000000" d="M 225.59375 284.34375 L 224.300781 284.992188 C 225.996094 287.203125 229.851562 287.964844 231.753906 287.90625 C 233.621094 287.796875 240.175781 288.894531 240.828125 287.582031 C 241.527344 286.191406 236.714844 284.417969 237.261719 283.046875 C 237.710938 281.429688 239.164062 285.179688 240.503906 285.960938 C 241.867188 286.53125 242.125 285.636719 242.125 285.636719 C 242.125 285.636719 240.851562 284.167969 239.53125 282.074219 C 238.378906 280.457031 236.613281 278.507812 236.613281 278.507812 L 235.644531 280.453125 L 234.023438 280.128906 L 234.023438 282.074219 L 231.753906 282.722656 L 230.132812 282.074219 C 230.132812 282.074219 227.347656 285.179688 225.59375 284.34375 " fill-opacity="1" fill-rule="nonzero"/><path fill="#000000" d="M 99.191406 283.046875 L 101.785156 282.398438 L 102.433594 281.425781 L 103.40625 280.777344 L 104.703125 278.832031 L 106.324219 279.480469 L 106.972656 278.1875 C 106.972656 278.1875 111.882812 283.492188 111.832031 285.636719 C 111.882812 287.542969 109.886719 285.316406 109.886719 285.316406 L 107.617188 283.046875 L 109.5625 286.933594 C 109.5625 286.933594 105.902344 287.402344 104.054688 287.582031 C 102.09375 287.878906 99.839844 286.933594 99.839844 286.933594 C 98.378906 285.179688 99.191406 283.046875 99.191406 283.046875 " fill-opacity="1" fill-rule="nonzero"/><g clip-path="url(#9bd4d9e812)"><path stroke-linecap="butt" transform="matrix(-0.324111, 0, 0, -0.324034, 313.186215, 290.58001)" fill="none" stroke-linejoin="miter" d="M 660.252321 23.247992 L 652.249653 25.249134 L 650.248986 28.250847 L 647.247985 30.251988 L 643.246651 36.255414 L 638.244983 34.254272 L 636.244316 38.2445 C 636.244316 38.2445 621.094687 21.873714 621.251366 15.255481 C 621.094687 9.372606 627.253367 16.243996 627.253367 16.243996 L 634.255702 23.247992 L 628.2537 11.253197 C 628.2537 11.253197 639.546622 9.806589 645.247318 9.252056 C 651.297528 8.33587 658.251654 11.253197 658.251654 11.253197 C 662.759181 16.665924 660.252321 23.247992 660.252321 23.247992 " stroke="#000000" stroke-width="2.083" stroke-opacity="1" stroke-miterlimit="4"/></g><path fill="#000000" d="M 81.367188 203.332031 C 73.203125 186.300781 72.933594 161.28125 73.910156 156.347656 C 76.347656 146.117188 76.347656 144.765625 109.886719 145.332031 C 113.527344 145.515625 116.632812 145.96875 119.285156 146.304688 L 119.285156 147.925781 C 119.285156 147.925781 120.324219 152.191406 118.964844 153.433594 C 117.621094 154.890625 117.285156 156.917969 118.316406 157.320312 C 119.3125 157.589844 120.660156 158.601562 118.964844 160.5625 C 117.285156 162.652344 115.597656 165.691406 118.316406 165.746094 C 121 165.691406 122.6875 165.355469 121.878906 164.449219 C 121.335938 163.328125 121.335938 162.316406 122.203125 162.179688 C 123.363281 162.316406 123.023438 158.941406 124.148438 160.886719 C 125.050781 162.992188 125.386719 163.667969 126.417969 162.503906 C 127.414062 161.640625 129.011719 162.179688 129.011719 162.179688 C 129.011719 162.179688 133.828125 167.042969 131.925781 171.902344 C 129.777344 176.492188 128.425781 175.816406 129.011719 180.003906 C 129.777344 183.917969 127.75 182.90625 125.121094 184.539062 C 122.347656 186.28125 120.324219 183.582031 117.992188 183.242188 C 115.597656 182.90625 113.910156 182.230469 114.101562 185.511719 C 114.582031 188.980469 116.609375 194.042969 113.777344 196.207031 C 111.207031 198.09375 106.820312 199.785156 104.054688 198.796875 C 101.417969 197.757812 101.53125 192.78125 97.570312 197.824219 C 94.328125 202.144531 95.003906 200.796875 92.386719 202.039062 C 89.601562 203.496094 90.117188 201.714844 90.117188 201.714844 L 88.820312 201.390625 L 87.523438 203.980469 L 84.28125 203.980469 L 81.367188 203.332031 " fill-opacity="1" fill-rule="nonzero"/><path fill="#000000" d="M 234.671875 217.589844 C 233.871094 215.414062 232.75 207.546875 226.566406 208.195312 C 220.59375 208.898438 215.191406 207.546875 213.925781 205.601562 C 212.492188 203.496094 209.285156 194.042969 209.714844 192.640625 C 210.296875 191.34375 211.796875 186.253906 210.363281 180.003906 C 209.839844 177.5 207.121094 175.792969 207.121094 175.792969 C 207.121094 175.792969 199.84375 169.84375 198.695312 166.71875 C 197.367188 163.996094 192.128906 164.117188 191.238281 164.449219 C 189.871094 164.679688 188.519531 163.667969 188.648438 162.503906 C 188.519531 161.640625 191.558594 160.292969 188.972656 158.292969 C 186.160156 156.242188 184.46875 153.539062 183.460938 152.785156 C 182.445312 152.191406 182.140625 150.097656 182.8125 148.894531 C 183.289062 147.800781 183.257812 147.128906 183.136719 146.628906 C 188.078125 145.800781 193.832031 144.359375 193.832031 144.359375 C 193.832031 144.359375 211.308594 140.546875 226.890625 141.121094 C 229.003906 141.117188 231.050781 141.015625 233.050781 140.796875 C 231.738281 143.414062 230.046875 148.984375 231.429688 152.785156 C 233.996094 160.328125 236.800781 165.691406 236.9375 171.253906 C 236.800781 173.792969 235.679688 175.859375 235.644531 177.734375 C 235.957031 180.542969 240.007812 181.726562 238.234375 183.890625 C 236.292969 186.113281 237.898438 206.367188 238.882812 208.195312 C 239.753906 210.078125 244.394531 209.816406 244.394531 209.816406 C 245.917969 209.824219 249.253906 209.167969 249.253906 209.167969 C 247.882812 213.140625 245.46875 218.679688 241.800781 222.453125 C 239.078125 221.808594 235.28125 218.9375 234.671875 217.589844 " fill-opacity="1" fill-rule="nonzero"/><path fill="#000000" d="M 147.808594 177.410156 C 151.382812 174.46875 157.460938 184.257812 164.988281 186.160156 C 172.316406 188.308594 179.742188 181.21875 181.839844 178.058594 C 183.796875 175.144531 180.417969 173.457031 189.292969 176.113281 C 189.292969 176.113281 195.949219 179.195312 197.398438 181.300781 C 198.648438 183.242188 201.6875 183.917969 198.046875 186.160156 C 194.261719 188.644531 195.273438 189.320312 195.128906 193.9375 C 195.273438 198.769531 197.976562 203.15625 198.046875 205.277344 C 197.976562 207.207031 194.261719 223.746094 189.941406 225.691406 C 189.695312 225.855469 189.511719 225.980469 189.292969 226.015625 C 182.242188 226.296875 169.386719 227.382812 164.339844 228.609375 C 158.167969 229.746094 158.410156 227.722656 150.726562 226.664062 C 150.089844 225.011719 149.441406 223.144531 149.105469 221.15625 C 147.332031 212.609375 148.007812 208.898438 149.753906 205.277344 C 151.382812 201.472656 148.683594 198.769531 146.835938 197.175781 C 145.308594 195.394531 143.957031 180.542969 147.808594 177.410156 " fill-opacity="1" fill-rule="nonzero"/><path fill="#6b575e" d="M 267.40625 136.257812 C 267.40625 136.257812 264.992188 132.953125 264.164062 132.046875 C 263.640625 130.925781 262.628906 130.25 261.246094 129.453125 C 259.925781 128.902344 260.097656 127.886719 257.359375 128.15625 C 254.695312 128.5625 254.117188 128.480469 254.117188 128.480469 L 257.683594 129.128906 C 257.683594 129.128906 256.71875 128.902344 255.738281 129.128906 C 254.695312 129.574219 253.792969 131.722656 253.792969 131.722656 C 253.792969 131.722656 254.863281 130.589844 255.738281 130.101562 C 256.886719 129.914062 254.527344 130.925781 254.441406 132.695312 C 254.527344 134.300781 254.765625 135.285156 254.765625 135.285156 C 254.765625 135.285156 254.863281 132.105469 256.0625 131.398438 C 257.566406 130.757812 256.382812 132.445312 256.386719 133.019531 C 256.382812 133.457031 256.886719 131.9375 258.007812 131.398438 C 258.914062 130.925781 256.550781 134.300781 257.035156 135.285156 C 257.226562 136.324219 257.226562 133.964844 258.65625 133.019531 C 259.925781 131.9375 258.914062 133.792969 258.980469 134.316406 C 258.914062 134.808594 259.589844 133.964844 259.949219 133.34375 C 260.265625 132.953125 261.570312 132.695312 261.570312 132.695312 L 259.949219 135.285156 L 261.894531 133.019531 C 261.894531 133.019531 261.277344 134.46875 260.921875 135.609375 C 260.601562 136.832031 262.21875 133.019531 262.21875 133.019531 L 261.894531 136.582031 L 262.867188 133.992188 L 262.867188 137.230469 L 263.839844 135.285156 L 262.867188 138.203125 L 264.8125 135.609375 L 263.515625 139.175781 L 265.460938 136.257812 L 265.460938 136.90625 L 266.109375 136.582031 L 266.433594 137.554688 L 267.40625 136.257812 " fill-opacity="1" fill-rule="nonzero"/><path stroke-linecap="butt" transform="matrix(-0.324111, 0, 0, -0.324034, 313.186215, 290.58001)" fill="none" stroke-linejoin="miter" d="M 66.247041 362.248632 C 66.247041 362.248632 72.140572 366.672843 72.249042 371.25377 C 72.140572 375.002896 71.248708 380.246852 71.248708 380.246852 " stroke="#000000" stroke-width="2.083" stroke-opacity="1" stroke-miterlimit="4"/><path stroke-linecap="butt" transform="matrix(-0.324111, 0, 0, -0.324034, 313.186215, 290.58001)" fill="none" stroke-linejoin="miter" d="M 603.245362 223.253668 C 603.245362 223.253668 597.134891 229.172708 596.25508 238.250176 C 595.049859 247.918343 589.843303 251.040606 584.251077 255.247825 " stroke="#000000" stroke-width="2.083" stroke-opacity="1" stroke-miterlimit="4"/><path stroke-linecap="butt" transform="matrix(-0.324111, 0, 0, -0.324034, 313.186215, 290.58001)" fill="none" stroke-linejoin="miter" d="M 306.254774 179.252661 C 306.254774 179.252661 313.799458 185.412802 318.246724 191.247456 C 322.139588 197.91391 317.969523 199.312298 318.246724 205.255448 C 317.969523 213.537281 322.139588 235.417234 323.248392 238.250176 C 323.248392 238.250176 337.759254 253.126133 339.253728 265.253534 " stroke="#000000" stroke-width="2.083" stroke-opacity="1" stroke-miterlimit="4"/><path stroke-linecap="butt" transform="matrix(-0.324111, 0, 0, -0.324034, 313.186215, 290.58001)" fill="none" stroke-linejoin="miter" d="M 244.246148 190.246885 C 244.246148 190.246885 241.666974 207.292755 232.254197 220.251956 " stroke="#000000" stroke-width="2.083" stroke-opacity="1" stroke-miterlimit="4"/><path stroke-linecap="butt" transform="matrix(-0.324111, 0, 0, -0.324034, 313.186215, 290.58001)" fill="none" stroke-linejoin="miter" d="M 258.250817 112.250578 L 258.250817 100.255783 L 265.253152 87.248362 " stroke="#000000" stroke-width="2.083" stroke-opacity="1" stroke-miterlimit="4"/><path stroke-linecap="butt" transform="matrix(-0.324111, 0, 0, -0.324034, 313.186215, 290.58001)" fill="none" stroke-linejoin="miter" d="M 281.246436 131.24937 L 279.245769 106.247153 L 273.25582 89.249504 " stroke="#000000" stroke-width="2.083" stroke-opacity="1" stroke-miterlimit="4"/><path stroke-linecap="butt" transform="matrix(-0.324111, 0, 0, -0.324034, 313.186215, 290.58001)" fill="none" stroke-linejoin="miter" d="M 306.254774 148.247019 L 306.254774 122.244232 L 317.246391 112.250578 " stroke="#000000" stroke-width="2.083" stroke-opacity="1" stroke-miterlimit="4"/><path stroke-linecap="butt" transform="matrix(-0.324111, 0, 0, -0.324034, 313.186215, 290.58001)" fill="none" stroke-linejoin="miter" d="M 613.248697 139.253937 L 606.246363 108.248295 L 610.247697 100.255783 " stroke="#000000" stroke-width="2.083" stroke-opacity="1" stroke-miterlimit="4"/><path stroke-linecap="butt" transform="matrix(-0.324111, 0, 0, -0.324034, 313.186215, 290.58001)" fill="none" stroke-linejoin="miter" d="M 631.254701 137.252795 L 623.252033 116.252862 " stroke="#000000" stroke-width="2.083" stroke-opacity="1" stroke-miterlimit="4"/><path stroke-linecap="butt" transform="matrix(-0.324111, 0, 0, -0.324034, 313.186215, 290.58001)" fill="none" stroke-linejoin="miter" d="M 660.252321 175.250377 L 665.253989 152.249303 L 665.253989 137.252795 L 658.251654 125.245945 " stroke="#000000" stroke-width="2.083" stroke-opacity="1" stroke-miterlimit="4"/><path stroke-linecap="butt" transform="matrix(-0.324111, 0, 0, -0.324034, 313.186215, 290.58001)" fill="none" stroke-linejoin="miter" d="M 90.255045 477.254005 L 97.245328 476.253434 L 98.245661 480.255718 L 104.247662 482.244804 L 106.24833 486.247088 C 106.24833 486.247088 109.635001 489.586342 113.250664 487.247658 C 115.890098 485.415288 120.252999 487.247658 120.252999 487.247658 L 119.252665 490.249371 " stroke="#878289" stroke-width="2.083" stroke-opacity="1" stroke-miterlimit="4"/><path stroke-linecap="round" transform="matrix(-0.324111, 0, 0, -0.324034, 313.186215, 290.58001)" fill="none" stroke-linejoin="round" d="M 68.247708 424.24786 C 68.247708 424.24786 64.848984 420.836275 61.245373 417.255919 C 58.593886 414.579693 52.254423 410.251923 52.254423 410.251923 " stroke="#878289" stroke-width="2.083" stroke-opacity="1" stroke-miterlimit="4"/><path stroke-linecap="butt" transform="matrix(-0.324111, 0, 0, -0.324034, 313.186215, 290.58001)" fill="none" stroke-linejoin="miter" d="M 202.244192 350.253837 C 202.244192 350.253837 203.389152 342.707362 203.244525 328.253333 C 203.389152 313.546147 205.474184 306.252829 205.245192 295.24655 C 205.474184 283.33614 217.249195 261.251251 217.249195 261.251251 " stroke="#878289" stroke-width="2.083" stroke-opacity="1" stroke-miterlimit="4"/><path stroke-linecap="butt" transform="matrix(-0.324111, 0, 0, -0.324034, 313.186215, 290.58001)" fill="none" stroke-linejoin="miter" d="M 569.246074 303.251116 C 569.246074 303.251116 566.93205 291.666194 568.245741 284.252325 C 569.017082 277.079558 573.175095 268.749505 575.248076 264.252963 " stroke="#878289" stroke-width="2.083" stroke-opacity="1" stroke-miterlimit="4"/><path stroke-linecap="butt" transform="matrix(-0.324111, 0, 0, -0.324034, 313.186215, 290.58001)" fill="none" stroke-linejoin="miter" d="M 448.253926 423.247289 C 448.253926 423.247289 467.62183 421.523414 492.244497 421.246147 C 517.626454 421.523414 529.425569 414.579693 535.246787 418.244435 C 535.246787 418.244435 548.178809 418.750748 540.248454 406.249639 C 531.510601 393.748531 523.170471 387.504005 513.251501 385.249706 " stroke="#878289" stroke-width="2.083" stroke-opacity="1" stroke-miterlimit="4"/><path stroke-linecap="butt" transform="matrix(-0.324111, 0, 0, -0.324034, 313.186215, 290.58001)" fill="none" stroke-linejoin="miter" d="M 617.250032 231.24618 C 617.250032 231.24618 621.094687 214.586072 619.250699 202.253735 C 616.924622 189.583856 621.094687 181.253802 625.2527 173.249235 C 629.422765 164.58164 633.59283 164.58164 640.24565 160.253869 " stroke="#878289" stroke-width="2.083" stroke-opacity="1" stroke-miterlimit="4"/><path stroke-linecap="butt" transform="matrix(-0.324111, 0, 0, -0.324034, 313.186215, 290.58001)" fill="none" stroke-linejoin="miter" d="M 141.247951 440.244938 C 141.247951 440.244938 148.177972 438.545173 147.249952 427.249572 C 146.09294 415.628484 148.250286 418.244435 148.250286 418.244435 C 148.250286 418.244435 149.214462 417.701956 149.250619 412.253064 C 149.214462 407.29843 160.676115 397.919586 154.252287 388.251419 C 148.177972 379.173951 146.09294 366.672843 140.247617 364.249774 C 133.594797 362.501788 127.255334 361.248061 127.255334 361.248061 C 127.255334 361.248061 118.746473 359.717067 115.251331 362.248632 " stroke="#878289" stroke-width="2.083" stroke-opacity="1" stroke-miterlimit="4"/><path stroke-linecap="butt" transform="matrix(-0.324111, 0, 0, -0.324034, 313.186215, 290.58001)" fill="none" stroke-linejoin="miter" d="M 65.246707 386.250277 C 65.246707 386.250277 71.441544 387.504005 75.250042 389.25199 C 78.383617 391.663004 73.177062 393.748531 80.25171 388.251419 C 87.061209 382.645811 89.146242 365.624052 96.244994 365.250344 C 99.378569 365.624052 106.079599 362.754945 114.250998 362.248632 C 119.891433 361.802594 131.618234 362.610284 140.247617 376.244569 " stroke="#878289" stroke-width="2.083" stroke-opacity="1" stroke-miterlimit="4"/><path stroke-linecap="butt" transform="matrix(-0.324111, 0, 0, -0.324034, 313.186215, 290.58001)" fill="none" stroke-linejoin="miter" d="M 444.252592 412.253064 C 444.252592 412.253064 437.069474 404.863306 445.252926 399.245643 C 453.737682 393.748531 459.293752 397.919586 462.246543 393.254273 C 464.849821 389.577477 466.235825 385.418477 477.251546 389.25199 " stroke="#878289" stroke-width="2.083" stroke-opacity="1" stroke-miterlimit="4"/><path stroke-linecap="butt" transform="matrix(-0.324111, 0, 0, -0.324034, 313.186215, 290.58001)" fill="none" stroke-linejoin="miter" d="M 684.248274 253.246684 C 684.248274 253.246684 680.126417 240.974622 672.244271 238.250176 C 663.458209 235.417234 660.674148 232.644568 660.252321 227.255952 " stroke="#878289" stroke-width="2.083" stroke-opacity="1" stroke-miterlimit="4"/><path stroke-linecap="butt" transform="matrix(-0.324111, 0, 0, -0.324034, 313.186215, 290.58001)" fill="none" stroke-linejoin="miter" d="M 165.255955 412.253064 C 165.255955 412.253064 169.016245 404.863306 167.24457 392.253702 C 166.232185 379.86109 171.788254 384.032144 163.255288 374.255482 C 155.120046 364.587315 149.563977 361.802594 153.251953 356.245207 C 157.892054 350.699874 160.254288 355.244636 160.254288 355.244636 C 160.254288 355.244636 164.84618 364.587315 166.244237 360.24749 C 167.618189 356.245207 163.448124 345.142487 167.24457 339.247557 C 171.788254 334.027712 178.730328 335.414045 177.247906 330.254475 " stroke="#878289" stroke-width="2.083" stroke-opacity="1" stroke-miterlimit="4"/><path fill="#000000" d="M 302.410156 169.632812 C 301.792969 169.742188 300.441406 169.234375 300.464844 168.015625 C 300.777344 166.875 300.777344 165.859375 301.4375 167.042969 C 302.128906 168.222656 302.804688 169.40625 303.707031 169.957031 C 304.492188 170.417969 305.503906 169.742188 305.976562 170.28125 C 306.519531 171.09375 306.253906 170.800781 305.328125 171.253906 C 304.324219 171.765625 301.113281 170.28125 301.113281 170.28125 C 301.113281 170.28125 301.792969 170.078125 302.410156 170.28125 C 302.804688 170.417969 302.410156 169.632812 302.410156 169.632812 " fill-opacity="1" fill-rule="nonzero"/><path fill="#000000" d="M 281.667969 146.628906 L 281.992188 146.628906 L 281.667969 147.601562 L 282.964844 146.628906 L 282.316406 147.601562 L 283.609375 147.277344 L 283.285156 147.601562 L 283.609375 147.601562 L 284.257812 147.277344 L 283.933594 147.925781 L 284.582031 147.601562 L 284.257812 148.25 C 284.257812 148.25 285.25 147.296875 285.878906 147.601562 C 285.878906 147.601562 285.03125 147.105469 284.582031 146.628906 C 284.460938 146.320312 283.257812 146.109375 282.316406 145.980469 C 282.203125 145.988281 282.144531 145.988281 281.992188 145.980469 C 281.917969 145.96875 281.761719 145.957031 281.667969 145.980469 C 280.902344 145.929688 280.289062 145.925781 280.046875 145.980469 C 280.046875 145.980469 284.574219 144.257812 286.203125 147.601562 C 286.941406 149.113281 286.851562 149.867188 286.851562 149.867188 C 286.980469 149.859375 286.992188 149.890625 287.175781 149.867188 C 287.191406 149.582031 287.414062 149.054688 287.5 148.570312 C 287.273438 148.222656 287.613281 148.394531 287.175781 147.277344 C 286.597656 145.863281 286.203125 145.65625 286.203125 145.65625 C 286.203125 145.65625 287.273438 146.199219 287.5 147.277344 C 287.613281 148.222656 287.863281 149.742188 287.5 150.191406 C 287.191406 150.753906 286.851562 150.191406 286.851562 150.191406 C 286.515625 150.082031 286.203125 150.191406 286.203125 150.191406 C 285.726562 150.445312 285.300781 150.832031 283.285156 150.515625 C 282.628906 150.496094 281.5 149.601562 281.34375 148.894531 C 281.121094 149.394531 281.199219 149.910156 281.34375 150.191406 C 282.335938 151.402344 284.195312 151.253906 284.90625 151.164062 C 286.03125 150.945312 286.9375 150.722656 286.851562 150.839844 C 286.851562 150.839844 286.609375 151.132812 285.554688 151.164062 C 285.601562 151.300781 282.320312 151.746094 281.019531 150.191406 C 279.425781 148.394531 280.605469 147.296875 281.667969 146.628906 " fill-opacity="1" fill-rule="nonzero"/><path fill="#e3dbe3" d="M 285.878906 149.21875 C 285.878906 149.21875 285.585938 150.417969 283.285156 150.191406 C 283.285156 150.191406 285.25 150.839844 285.878906 149.542969 L 286.203125 149.21875 L 286.527344 149.867188 L 285.878906 148.570312 L 285.878906 149.21875 " fill-opacity="1" fill-rule="nonzero"/><path fill="#ffffff" d="M 283.933594 148.25 L 283.609375 148.570312 L 283.285156 148.25 L 283.933594 148.25 " fill-opacity="1" fill-rule="nonzero"/><path fill="#f8c9cf" d="M 116.046875 224.070312 C 116.046875 224.070312 115.511719 221.722656 117.34375 219.210938 C 117.34375 219.210938 119.574219 216.539062 124.472656 215.972656 C 128.761719 215.480469 134.757812 219.277344 136.140625 220.507812 C 137.457031 221.46875 148.132812 226.339844 148.132812 226.339844 C 146.988281 226.890625 145.769531 227.511719 144.566406 227.960938 C 144.148438 228.753906 143.347656 230.566406 143.59375 232.171875 C 143.957031 234.210938 144.292969 235.394531 143.59375 235.738281 C 142.941406 236.40625 141.929688 236.238281 141.652344 234.765625 C 141.253906 233.535156 141.59375 231.847656 141.328125 230.875 C 140.988281 230.03125 140.519531 229.664062 140.355469 229.582031 C 140.355469 229.582031 138.21875 229.484375 138.734375 231.199219 C 139.566406 232.863281 138.734375 235.414062 138.734375 235.414062 C 138.734375 235.414062 137.203125 237.585938 137.113281 236.386719 C 137.203125 234.886719 135.851562 232.523438 135.816406 231.199219 C 135.851562 229.824219 132.582031 228.53125 132.574219 230.554688 C 132.648438 230.851562 132.636719 231.445312 132.898438 232.496094 C 133.152344 234.546875 133.222656 235.738281 133.222656 235.738281 C 133.222656 235.738281 132.476562 237.925781 131.601562 236.386719 C 130.453125 234.546875 130.789062 234.210938 130.632812 233.144531 C 130.789062 232.335938 129.820312 230.511719 129.660156 229.90625 C 128.992188 229.871094 128.445312 229.75 128.039062 229.582031 C 127.445312 229.71875 127.074219 230.039062 127.066406 230.875 C 127.074219 232.863281 126.09375 234.441406 126.09375 234.441406 C 126.09375 234.441406 124.710938 235.5625 124.472656 234.117188 C 124.039062 232.863281 124.375 231.511719 124.148438 230.554688 C 123.699219 229.484375 122.527344 228.285156 122.527344 228.285156 C 122.527344 228.285156 117.652344 226.28125 116.046875 224.070312 " fill-opacity="1" fill-rule="nonzero"/><path stroke-linecap="butt" transform="matrix(-0.324111, 0, 0, -0.324034, 313.186215, 290.58001)" fill="none" stroke-linejoin="miter" d="M 608.24703 205.255448 C 608.24703 205.255448 609.898183 212.500545 604.245696 220.251956 C 604.245696 220.251956 597.363883 228.497624 582.25041 230.245609 C 569.017082 231.764548 550.516938 220.047019 546.250455 216.249672 C 542.18886 213.284125 509.250167 198.251452 509.250167 198.251452 C 512.781465 196.551687 516.541755 194.634931 520.253836 193.248598 C 521.543423 190.801418 524.014126 185.207865 523.254837 180.253231 C 522.133981 173.960485 521.097491 170.307798 523.254837 169.246952 C 525.267556 167.185535 528.389078 167.703903 529.244785 172.248665 C 530.474111 176.046012 529.425569 181.253802 530.245119 184.255515 C 531.293661 186.85941 532.739927 187.992587 533.24612 188.245743 C 533.24612 188.245743 539.838679 188.54712 538.247787 183.254944 C 535.680666 178.119484 538.247787 170.247523 538.247787 170.247523 C 538.247787 170.247523 542.972254 163.544904 543.249455 167.24581 C 542.972254 171.874957 547.142319 179.168275 547.250789 183.254944 C 547.142319 187.498329 557.23002 191.488557 557.254124 185.244031 C 557.025132 184.327845 557.061289 182.495475 556.253791 179.252661 C 555.470397 172.923749 555.253457 169.246952 555.253457 169.246952 C 555.253457 169.246952 557.55543 162.496113 560.255125 167.24581 C 563.798475 172.923749 562.761985 173.960485 563.244073 177.251519 C 562.761985 179.746919 565.750933 185.376636 566.245074 187.245172 C 568.306002 187.353668 569.993311 187.727375 571.246741 188.245743 C 573.078678 187.823816 574.223638 186.8353 574.247742 184.255515 C 574.223638 178.119484 577.248743 173.249235 577.248743 173.249235 C 577.248743 173.249235 581.515225 169.78943 582.25041 174.249806 C 583.588206 178.119484 582.551716 182.290538 583.250744 185.244031 C 584.636748 188.54712 588.252411 192.248027 588.252411 192.248027 C 588.252411 192.248027 603.293571 198.432278 608.24703 205.255448 Z M 608.24703 205.255448 " stroke="#000000" stroke-width="2.083" stroke-opacity="1" stroke-miterlimit="4"/></svg>