<svg xmlns="http://www.w3.org/2000/svg" xmlns:xlink="http://www.w3.org/1999/xlink" width="500" zoomAndPan="magnify" viewBox="0 0 375 374.999991" height="500" preserveAspectRatio="xMidYMid meet" version="1.0"><defs><clipPath id="9f650b420b"><path d="M 142.183594 187.5 L 161.246094 187.5 L 161.246094 206.5625 L 142.183594 206.5625 Z M 142.183594 187.5 " clip-rule="nonzero"/></clipPath><clipPath id="d4ec053b30"><path d="M 151.714844 187.5 C 146.453125 187.5 142.183594 191.765625 142.183594 197.03125 C 142.183594 202.296875 146.453125 206.5625 151.714844 206.5625 C 156.980469 206.5625 161.246094 202.296875 161.246094 197.03125 C 161.246094 191.765625 156.980469 187.5 151.714844 187.5 Z M 151.714844 187.5 " clip-rule="nonzero"/></clipPath><clipPath id="c1a39e6b93"><path d="M 80.097656 119.585938 L 294.597656 119.585938 L 294.597656 293 L 80.097656 293 Z M 80.097656 119.585938 " clip-rule="nonzero"/></clipPath><clipPath id="92b8a0b373"><path d="M 80.097656 120 L 273 120 L 273 244 L 80.097656 244 Z M 80.097656 120 " clip-rule="nonzero"/></clipPath><clipPath id="aa2c075010"><path d="M 110 119.585938 L 294.597656 119.585938 L 294.597656 288 L 110 288 Z M 110 119.585938 " clip-rule="nonzero"/></clipPath></defs><g clip-path="url(#9f650b420b)"><g clip-path="url(#d4ec053b30)"><path fill="#000000" d="M 142.183594 187.5 L 161.246094 187.5 L 161.246094 206.5625 L 142.183594 206.5625 Z M 142.183594 187.5 " fill-opacity="1" fill-rule="nonzero"/></g></g><g clip-path="url(#c1a39e6b93)"><path fill="#ad7440" d="M 80.097656 243.289062 C 83.179688 236.703125 88.742188 231.445312 90.839844 224.246094 C 93.046875 216.65625 91.476562 209.136719 90.714844 201.492188 C 90.296875 197.308594 89.453125 192.789062 89.894531 188.617188 C 90.5625 182.320312 92.992188 174.898438 96.917969 169.867188 C 98.027344 168.433594 99.332031 167.128906 100.777344 166.015625 C 103.550781 163.863281 106.839844 162.414062 110.324219 162.097656 C 115.113281 161.664062 119.34375 163.640625 122.785156 166.792969 C 125.605469 164.402344 128.710938 162.527344 131.878906 161.441406 C 142.867188 157.675781 154.832031 161.609375 165.890625 165.167969 C 172.71875 167.363281 179.855469 168.835938 187.042969 168.617188 C 187.570312 168.601562 188.082031 168.558594 188.570312 168.492188 C 189.652344 166.210938 190.402344 163.652344 193.050781 162.679688 C 193.828125 162.402344 194.675781 162.304688 195.4375 161.984375 C 195.675781 161.886719 195.898438 161.761719 196.105469 161.609375 C 197.730469 160.429688 197.546875 157.898438 198.726562 156.273438 C 199.894531 154.660156 202.085938 154.269531 204.042969 153.878906 C 206 153.492188 208.191406 152.753906 208.929688 150.90625 C 209.21875 150.167969 209.21875 149.375 209.371094 148.597656 C 209.84375 146.066406 211.925781 143.914062 214.425781 143.34375 C 215.382812 143.121094 216.394531 143.121094 217.324219 142.773438 C 221.042969 141.355469 221.113281 135.476562 224.679688 133.710938 C 226.496094 132.808594 228.886719 133.222656 230.4375 131.917969 C 232.425781 130.289062 233.019531 127.273438 234.9375 125.480469 C 236.824219 123.714844 239.417969 124.980469 241.25 123.660156 C 242.5 122.757812 245.164062 121.019531 246.578125 122.6875 C 247.121094 123.339844 247.785156 124.089844 248.632812 124.023438 C 249.742188 123.925781 248.035156 122.394531 247.941406 122.074219 C 247.660156 121.226562 247.941406 120.808594 248.757812 120.40625 C 250.410156 119.585938 252.921875 120.40625 254.421875 121.214844 C 255.613281 121.851562 257.652344 122.785156 258.238281 124.0625 C 258.597656 124.871094 258.542969 125.96875 259.304688 126.425781 C 259.402344 126.480469 259.542969 126.523438 259.640625 126.46875 C 259.679688 126.441406 259.707031 126.398438 259.734375 126.34375 C 259.929688 125.980469 259.820312 125.535156 259.679688 125.148438 C 259.542969 124.757812 259.359375 124.367188 259.417969 123.953125 C 259.609375 122.507812 263.539062 123.507812 264.289062 124.117188 C 264.605469 124.382812 264.855469 124.675781 265.050781 124.980469 C 266.3125 123.171875 268.050781 121.628906 269.882812 120.378906 C 270.226562 120.144531 270.617188 119.90625 271.03125 119.933594 C 271.585938 119.976562 272.003906 120.503906 272.101562 121.046875 C 272.199219 121.589844 272.074219 122.144531 271.949219 122.6875 C 271.585938 124.214844 271.214844 125.757812 270.601562 127.21875 C 270.351562 127.800781 270.074219 128.371094 269.726562 128.902344 C 269.910156 129.179688 270.144531 129.511719 270.3125 129.816406 C 270.4375 130.039062 270.519531 130.261719 270.519531 130.445312 C 270.519531 131.195312 270.519531 131.945312 270.519531 132.695312 C 270.519531 132.140625 270.824219 131.640625 271.144531 131.179688 C 271.296875 130.972656 271.449219 130.75 271.683594 130.636719 C 272.019531 130.472656 272.40625 130.554688 272.765625 130.652344 C 272.644531 131.207031 272.503906 131.75 272.363281 132.292969 C 272.226562 132.835938 272.074219 133.375 271.90625 133.90625 C 271.796875 134.253906 271.671875 134.613281 271.503906 134.933594 C 273.074219 136.28125 274.460938 137.8125 275.777344 139.394531 C 277.804688 141.828125 279.679688 144.398438 281.898438 146.667969 C 283.203125 147.988281 284.257812 149.515625 285.507812 150.917969 C 286.839844 152.421875 288.128906 153.949219 289.367188 155.535156 C 290.144531 156.523438 290.949219 157.507812 291.683594 158.523438 C 292.472656 159.609375 293.222656 160.746094 293.765625 161.984375 C 294.015625 162.554688 294.238281 163.136719 294.363281 163.75 C 294.460938 164.195312 294.597656 164.679688 294.472656 165.125 C 294.335938 165.625 293.847656 165.960938 293.640625 166.445312 C 293.5 166.792969 293.5 167.15625 293.335938 167.503906 C 292.933594 168.351562 292.070312 169.046875 291.113281 169.117188 C 290.933594 169.128906 290.738281 169.128906 290.558594 169.144531 C 290.335938 169.15625 290.128906 169.214844 289.976562 169.367188 C 289.949219 169.394531 289.933594 169.40625 289.90625 169.4375 C 289.683594 169.714844 289.671875 170.128906 289.449219 170.421875 C 289.269531 170.644531 288.992188 170.757812 288.726562 170.824219 C 288.726562 170.824219 288.714844 170.824219 288.714844 170.824219 C 288.617188 170.851562 288.519531 170.882812 288.421875 170.894531 C 285.007812 171.671875 282.328125 168.796875 279.84375 166.820312 C 276.738281 164.347656 272.878906 162.804688 268.839844 162.386719 C 262.773438 161.777344 258.5 161.929688 254.878906 157.855469 C 254.878906 157.855469 254.878906 157.855469 254.878906 157.871094 C 254.878906 157.871094 254.878906 157.882812 254.890625 157.882812 L 255.058594 158.105469 L 255.101562 158.160156 L 255.128906 158.191406 C 255.140625 158.203125 255.140625 158.203125 255.140625 158.230469 C 255.140625 158.246094 255.128906 158.273438 255.113281 158.300781 C 255.101562 158.328125 255.058594 158.371094 255.03125 158.414062 C 255.015625 158.425781 254.988281 158.46875 254.960938 158.480469 L 254.921875 158.523438 C 254.90625 158.539062 254.878906 158.566406 254.863281 158.578125 L 254.644531 158.800781 L 254.335938 159.039062 C 253.851562 159.859375 253.242188 160.609375 252.753906 161.429688 C 250.992188 164.417969 251.132812 168.101562 250.257812 171.453125 C 249.0625 176.011719 246.261719 179.957031 244.359375 184.210938 C 242.457031 188.464844 242.234375 193.46875 243.84375 197.847656 C 244.496094 199.628906 245.425781 201.308594 245.925781 203.132812 C 246.425781 205.023438 246.441406 206.996094 246.371094 208.957031 C 246.289062 211.445312 246.066406 213.960938 245.148438 216.265625 C 244.027344 219.117188 242.054688 221.605469 242.011719 224.800781 C 242.011719 224.96875 242.011719 225.136719 242.027344 225.304688 C 242.042969 225.457031 242.070312 225.621094 242.109375 225.777344 C 242.125 225.804688 242.125 225.84375 242.136719 225.871094 C 242.386719 226.636719 243.070312 227.179688 243.707031 227.679688 C 246.386719 229.765625 248.925781 232.03125 251.324219 234.421875 C 253.824219 236.925781 258.113281 243.011719 254.253906 245.988281 C 253.960938 246.210938 253.65625 246.40625 253.40625 246.667969 C 253.117188 246.988281 252.921875 247.40625 252.769531 247.808594 C 252.214844 249.238281 252.226562 250.546875 252.035156 252.007812 C 251.796875 253.773438 251.242188 255.539062 250.894531 257.289062 C 250.203125 260.832031 249.675781 264.40625 249.507812 268.019531 C 249.4375 269.6875 249.617188 271.578125 249.367188 273.289062 C 249.214844 274.304688 248.910156 275.25 248.300781 276.054688 C 247.316406 277.347656 245.996094 278.320312 245.261719 279.820312 C 244.886719 280.585938 244.691406 281.433594 244.316406 282.199219 C 244.261719 282.296875 244.21875 282.394531 244.164062 282.476562 L 244.164062 282.492188 L 240.363281 292.429688 L 235.949219 279.570312 L 238.820312 275.582031 C 239.320312 274.609375 240.085938 273.71875 240.722656 272.828125 C 243.816406 268.507812 244.96875 262.835938 245.425781 257.636719 C 245.675781 254.746094 245.691406 251.824219 245.414062 248.933594 C 245.234375 247.128906 245.359375 242.859375 243.597656 241.871094 C 242.695312 241.359375 241.152344 241.175781 240.097656 240.609375 C 237.601562 239.257812 235.339844 237.4375 232.660156 236.410156 C 229.289062 235.101562 225.5 235.226562 222.335938 233.351562 C 222.25 233.296875 222.167969 233.242188 222.085938 233.199219 C 222.027344 234.339844 221.847656 235.5625 221.515625 236.867188 C 220.601562 240.523438 218.835938 243.820312 217.769531 247.417969 C 217.019531 249.964844 217.144531 252.644531 216.8125 255.191406 C 217.0625 255.789062 217.199219 256.453125 217.199219 257.164062 C 217.214844 259.636719 215.644531 261.75 214.578125 263.863281 C 213.355469 266.28125 213.007812 269.078125 212.703125 271.757812 C 212.382812 274.496094 212.523438 277.179688 213.339844 279.542969 C 213.992188 281.433594 215.089844 283.128906 216.753906 284.464844 C 217.171875 284.796875 218.03125 285.410156 218.753906 286.132812 C 222.015625 288.496094 223.859375 290.359375 224.972656 291.945312 L 211.953125 291.636719 L 211.675781 287.230469 L 211.71875 287.21875 C 211.71875 287.203125 211.71875 287.203125 211.703125 287.1875 C 211.230469 286.007812 210.566406 284.605469 209.523438 283.949219 C 208.566406 283.351562 207.359375 283.628906 206.652344 282.476562 C 206.167969 281.699219 206.082031 280.683594 206.097656 279.726562 C 206.152344 276.765625 207.039062 273.761719 207.636719 270.882812 C 208.152344 268.382812 208.941406 265.878906 209.148438 263.335938 C 209.386719 260.332031 207.707031 257.109375 209.523438 254.328125 C 209.234375 250.8125 209.539062 246.945312 209.621094 243.472656 C 209.648438 242.414062 209.648438 240.453125 209.761719 238.1875 C 209.941406 234.628906 210.386719 230.308594 211.632812 227.527344 C 202.183594 228.472656 192.636719 228.054688 183.28125 226.402344 C 177.0625 225.289062 171.097656 223.230469 165.113281 221.257812 C 162.132812 220.269531 158.691406 218.15625 155.457031 218.394531 C 154.386719 218.476562 153.582031 218.839844 152.957031 219.410156 C 152.75 219.589844 152.570312 219.796875 152.417969 220.019531 C 151.125 221.757812 150.945312 224.539062 150.515625 226.539062 C 149.65625 230.65625 148.863281 234.964844 147.519531 238.953125 C 146.710938 241.316406 145.40625 243.472656 144.644531 245.808594 C 143.855469 248.238281 142.273438 250.464844 142.273438 253.105469 C 142.273438 255.230469 143.328125 257.332031 142.9375 259.429688 C 142.757812 260.429688 142.257812 261.347656 141.953125 262.335938 C 141.121094 265.046875 143.730469 268.8125 145.074219 271.0625 C 148.65625 277.027344 152.722656 276.957031 158.425781 286.214844 C 158.59375 286.132812 158.730469 286.0625 158.828125 285.980469 C 162.226562 288.71875 162.464844 290.082031 163.464844 291.789062 C 162.421875 293.542969 158.066406 292.875 152.820312 291.554688 L 151.804688 287.914062 C 151.152344 286.84375 150.320312 285.992188 148.640625 286.050781 C 148.308594 286.0625 147.976562 286.117188 147.640625 286.050781 C 147.226562 285.980469 146.878906 285.730469 146.558594 285.453125 C 145.253906 284.3125 144.992188 282.976562 144.492188 281.421875 C 143.9375 279.710938 143.132812 278.027344 142.464844 276.347656 C 141.464844 273.816406 139.871094 271.355469 137.996094 269.367188 C 137.246094 268.578125 136.414062 267.824219 135.734375 266.976562 C 134.015625 264.808594 133.25 261.902344 133.707031 259.164062 C 134.097656 256.871094 135.261719 254.757812 135.539062 252.4375 C 135.664062 251.367188 135.414062 250.378906 135.414062 249.335938 C 135.402344 247.917969 135.679688 246.460938 135.789062 245.042969 C 136.082031 241.164062 135.941406 237.339844 136.636719 233.546875 C 137.527344 228.707031 134.902344 224.121094 131.378906 220.578125 C 131.863281 222.828125 131.460938 225.398438 129.558594 228.484375 C 127.699219 231.503906 125.203125 233.878906 123.230469 236.800781 C 120.609375 240.691406 120.484375 246.5 116.570312 249.476562 C 116.179688 249.769531 115.75 250.03125 115.402344 250.378906 C 113.683594 252.117188 113.933594 256.203125 113.78125 258.46875 C 113.558594 261.527344 113.597656 264.640625 114.167969 267.660156 C 114.570312 269.773438 115.460938 272.039062 115.570312 274.164062 C 115.679688 276.375 115.695312 278.5 115.320312 280.628906 C 115.695312 282.117188 114.695312 289.441406 114.003906 289.386719 C 110.808594 287.980469 108.285156 284.519531 106.867188 280.292969 L 108.421875 275.652344 C 108.574219 275.082031 108.757812 274.511719 108.839844 273.871094 C 108.9375 273.234375 108.839844 272.550781 108.4375 272.050781 C 107.671875 271.09375 106.148438 271.148438 105.257812 270.300781 C 104.273438 269.367188 104.785156 267.9375 105.425781 266.714844 C 105.703125 266.183594 105.980469 265.683594 106.175781 265.296875 C 106.6875 264.238281 107.035156 263.128906 107.355469 262 C 107.949219 259.859375 108.5625 257.746094 109.144531 255.605469 C 109.589844 253.964844 110.378906 252.214844 110.519531 250.546875 C 110.726562 248.238281 110.519531 245.820312 110.574219 243.5 C 110.589844 242.777344 110.617188 242.039062 110.796875 241.332031 C 111.53125 238.34375 114.460938 237.214844 116.027344 234.839844 C 117.292969 232.933594 118.441406 230.28125 118.277344 227.957031 C 118.222656 227.207031 118.039062 226.46875 117.761719 225.761719 C 116.792969 223.289062 114.75 221.089844 113.597656 219.019531 C 110.003906 212.554688 110.183594 204.230469 110.546875 196.5 C 110.628906 194.859375 110.714844 193.191406 110.894531 191.550781 C 110.824219 190.871094 110.769531 190.191406 110.714844 189.523438 C 110.628906 188.453125 110.699219 187.394531 110.867188 186.339844 C 111.710938 181.027344 114.597656 175.496094 118.539062 170.910156 C 117.707031 170.589844 116.875 170.3125 115.945312 170.351562 C 113.265625 170.476562 111.199219 171.6875 109.839844 173.953125 C 105.355469 181.460938 105.34375 191.164062 107.578125 199.40625 C 109.78125 207.539062 112.199219 216.894531 107.703125 224.734375 C 105.730469 228.179688 102.789062 230.960938 99.902344 233.683594 C 97.917969 235.546875 96.042969 237.589844 94.113281 239.425781 C 93.878906 237.535156 95.183594 236.089844 96.128906 234.601562 C 96.597656 233.851562 97.265625 233.117188 97.527344 232.253906 C 97.695312 231.699219 97.5 230.125 97.679688 229.808594 C 93.949219 236.492188 87.4375 241.441406 80.097656 243.289062 Z M 80.097656 243.289062 " fill-opacity="1" fill-rule="nonzero"/></g><g clip-path="url(#92b8a0b373)"><path fill="#604532" d="M 80.097656 243.289062 C 83.179688 236.703125 88.742188 231.445312 90.839844 224.246094 C 93.046875 216.65625 91.476562 209.136719 90.714844 201.492188 C 90.296875 197.308594 89.453125 192.789062 89.894531 188.617188 C 90.5625 182.320312 92.992188 174.898438 96.917969 169.867188 C 98.027344 168.433594 99.332031 167.128906 100.777344 166.015625 C 103.550781 163.863281 106.839844 162.414062 110.324219 162.097656 C 115.113281 161.664062 119.34375 163.640625 122.785156 166.792969 C 121.289062 168.058594 119.871094 169.476562 118.566406 170.980469 C 117.734375 170.660156 116.902344 170.378906 115.972656 170.421875 C 113.292969 170.546875 111.226562 171.757812 109.867188 174.023438 C 105.382812 181.527344 105.371094 191.230469 107.605469 199.476562 C 109.8125 207.605469 112.226562 216.960938 107.730469 224.800781 C 105.757812 228.25 102.816406 231.03125 99.929688 233.753906 C 97.945312 235.617188 96.070312 237.660156 94.140625 239.496094 C 93.90625 237.605469 95.210938 236.160156 96.15625 234.671875 C 96.625 233.921875 97.292969 233.183594 97.554688 232.324219 C 97.722656 231.765625 97.527344 230.195312 97.710938 229.875 C 93.949219 236.492188 87.4375 241.441406 80.097656 243.289062 Z M 271.214844 134.683594 C 271.308594 134.765625 271.40625 134.851562 271.503906 134.933594 C 271.683594 134.613281 271.808594 134.253906 271.90625 133.90625 C 272.074219 133.363281 272.226562 132.835938 272.363281 132.292969 C 272.503906 131.75 272.644531 131.195312 272.765625 130.652344 C 272.40625 130.570312 272.019531 130.484375 271.683594 130.636719 C 271.449219 130.75 271.28125 130.972656 271.144531 131.179688 C 270.824219 131.640625 270.503906 132.140625 270.519531 132.695312 C 270.519531 131.945312 270.519531 131.195312 270.519531 130.445312 C 270.519531 130.261719 270.4375 130.039062 270.3125 129.816406 C 270.144531 129.511719 269.910156 129.179688 269.726562 128.902344 C 269.230469 129.707031 268.617188 130.445312 267.882812 131.027344 C 266.621094 132.042969 267.355469 132.097656 268.492188 132.75 C 269.449219 133.320312 270.367188 133.972656 271.214844 134.683594 Z M 263.21875 129.234375 C 263.496094 127.691406 264.148438 126.273438 265.039062 124.996094 C 264.84375 124.6875 264.59375 124.398438 264.273438 124.132812 C 263.523438 123.507812 259.597656 122.507812 259.402344 123.964844 C 259.347656 124.371094 259.527344 124.773438 259.667969 125.160156 C 259.804688 125.550781 259.917969 125.996094 259.722656 126.355469 C 259.695312 126.398438 259.667969 126.453125 259.625 126.480469 C 259.527344 126.550781 259.390625 126.511719 259.292969 126.441406 C 258.527344 125.980469 258.585938 124.882812 258.222656 124.078125 C 257.640625 122.785156 255.601562 121.867188 254.40625 121.226562 C 252.90625 120.421875 250.394531 119.601562 248.746094 120.421875 C 247.910156 120.839844 247.648438 121.242188 247.925781 122.089844 C 248.023438 122.394531 249.730469 123.925781 248.621094 124.035156 C 247.773438 124.117188 247.121094 123.355469 246.566406 122.699219 C 245.148438 121.019531 242.484375 122.769531 241.238281 123.675781 C 239.40625 124.996094 236.808594 123.742188 234.921875 125.496094 C 233.007812 127.289062 232.410156 130.304688 230.425781 131.929688 C 228.871094 133.238281 226.484375 132.820312 224.664062 133.722656 C 221.097656 135.488281 221.03125 141.371094 217.3125 142.789062 C 216.394531 143.136719 215.382812 143.136719 214.410156 143.359375 C 211.898438 143.925781 209.832031 146.082031 209.359375 148.613281 C 209.21875 149.375 209.207031 150.183594 208.914062 150.917969 C 208.179688 152.78125 205.984375 153.503906 204.027344 153.894531 C 202.074219 154.285156 199.878906 154.671875 198.714844 156.285156 C 197.535156 157.910156 197.714844 160.441406 196.089844 161.625 C 195.882812 161.777344 195.660156 161.902344 195.425781 162 C 194.675781 162.304688 193.816406 162.402344 193.039062 162.695312 C 190.375 163.679688 189.636719 166.222656 188.554688 168.503906 C 195.230469 167.613281 199.089844 162.539062 205.429688 160.273438 C 207.082031 159.691406 208.84375 159.398438 210.46875 158.730469 C 212.257812 157.980469 213.8125 156.800781 215.296875 155.546875 C 222.085938 149.847656 226.96875 142.328125 233.976562 136.878906 C 239.53125 132.558594 246.761719 129.886719 253.769531 129.511719 C 255.476562 129.414062 257.195312 129.511719 258.875 129.761719 C 259.722656 129.886719 260.570312 130.054688 261.386719 130.261719 C 261.84375 130.375 262.484375 130.667969 262.871094 130.222656 C 263.109375 129.945312 263.164062 129.582031 263.21875 129.234375 Z M 263.21875 129.234375 " fill-opacity="1" fill-rule="nonzero"/></g><g clip-path="url(#aa2c075010)"><path fill="#e29d52" d="M 118.554688 170.980469 C 114.613281 175.566406 111.726562 181.097656 110.878906 186.410156 C 110.710938 187.464844 110.644531 188.519531 110.726562 189.589844 C 110.78125 190.273438 110.835938 190.941406 110.90625 191.621094 C 111.296875 195.511719 111.976562 199.433594 113.417969 203.074219 C 115 207.09375 117.554688 210.816406 121.050781 213.347656 C 122.496094 214.390625 124.089844 215.226562 125.617188 216.15625 C 127.53125 217.308594 129.574219 218.839844 131.363281 220.644531 C 134.886719 224.175781 137.511719 228.765625 136.625 233.617188 C 135.929688 237.398438 136.066406 241.234375 135.777344 245.113281 C 135.664062 246.53125 135.386719 247.988281 135.402344 249.40625 C 135.414062 250.449219 135.664062 251.4375 135.527344 252.507812 C 135.25 254.828125 134.082031 256.925781 133.695312 259.234375 C 133.238281 261.960938 134 264.878906 135.722656 267.046875 C 136.402344 267.910156 137.21875 268.644531 137.984375 269.4375 C 139.855469 271.410156 141.453125 273.886719 142.453125 276.417969 C 143.117188 278.085938 143.921875 279.78125 144.476562 281.488281 C 144.976562 283.046875 145.242188 284.382812 146.546875 285.519531 C 146.867188 285.800781 147.210938 286.050781 147.628906 286.117188 C 147.960938 286.175781 148.292969 286.117188 148.628906 286.117188 C 150.320312 286.0625 151.140625 286.910156 151.792969 287.980469 L 151.707031 287.660156 C 154.636719 287.246094 157.300781 286.800781 158.441406 286.285156 C 152.734375 277.042969 148.667969 277.109375 145.089844 271.132812 C 143.730469 268.867188 141.132812 265.113281 141.964844 262.402344 C 142.273438 261.429688 142.769531 260.511719 142.953125 259.5 C 143.339844 257.398438 142.285156 255.300781 142.285156 253.175781 C 142.285156 250.53125 143.867188 248.308594 144.660156 245.875 C 145.40625 243.539062 146.726562 241.386719 147.53125 239.023438 C 148.878906 235.035156 149.667969 230.722656 150.527344 226.609375 C 150.945312 224.609375 151.140625 221.828125 152.429688 220.089844 C 152.859375 218.910156 153.359375 217.753906 154 216.683594 C 154.832031 215.292969 155.929688 214.085938 157.289062 213.210938 C 158.121094 212.679688 159.035156 212.277344 159.964844 211.957031 C 160.148438 211.902344 160.230469 212.179688 160.050781 212.25 C 158.480469 212.765625 157.011719 213.570312 155.84375 214.753906 C 154.691406 215.90625 153.875 217.335938 153.234375 218.824219 C 153.136719 219.035156 153.054688 219.257812 152.972656 219.476562 C 153.582031 218.921875 154.386719 218.546875 155.46875 218.464844 C 158.703125 218.226562 162.144531 220.339844 165.128906 221.328125 C 171.109375 223.289062 177.078125 225.359375 183.296875 226.46875 C 192.636719 228.136719 202.199219 228.542969 211.648438 227.597656 C 211.785156 227.582031 211.925781 227.570312 212.066406 227.554688 C 213.632812 227.386719 215.285156 227.347656 216.976562 227.332031 C 216.4375 225.804688 215.839844 224.289062 214.910156 222.96875 C 213.867188 221.492188 212.328125 220.382812 210.511719 220.144531 C 209.566406 220.019531 208.59375 220.160156 207.722656 220.519531 C 207.539062 220.589844 207.472656 220.3125 207.636719 220.230469 C 209.289062 219.546875 211.164062 219.714844 212.71875 220.5625 C 214.480469 221.523438 215.589844 223.230469 216.394531 225.011719 C 216.769531 225.84375 217.089844 226.707031 217.378906 227.570312 C 217.503906 227.667969 217.617188 227.761719 217.742188 227.847656 C 218.644531 230.097656 220.15625 232.03125 222.058594 233.242188 C 222.140625 233.296875 222.222656 233.351562 222.308594 233.394531 C 225.472656 235.269531 229.257812 235.128906 232.632812 236.453125 C 235.296875 237.480469 237.574219 239.300781 240.070312 240.648438 C 241.125 241.21875 242.664062 241.398438 243.566406 241.914062 C 245.332031 242.902344 245.207031 247.167969 245.386719 248.976562 C 245.664062 251.867188 245.664062 254.785156 245.398438 257.679688 C 244.941406 262.875 243.789062 268.546875 240.695312 272.871094 C 240.058594 273.761719 239.308594 274.652344 238.792969 275.625 L 239.113281 275.191406 L 244.136719 282.519531 C 244.191406 282.433594 244.234375 282.339844 244.289062 282.242188 C 244.664062 281.476562 244.859375 280.628906 245.234375 279.863281 C 245.96875 278.375 247.289062 277.390625 248.273438 276.097656 C 248.882812 275.289062 249.1875 274.34375 249.339844 273.332031 C 249.589844 271.621094 249.410156 269.730469 249.480469 268.0625 C 249.648438 264.449219 250.175781 260.875 250.867188 257.332031 C 251.214844 255.578125 251.769531 253.8125 252.003906 252.046875 C 252.199219 250.589844 252.1875 249.28125 252.742188 247.851562 C 252.894531 247.445312 253.089844 247.03125 253.378906 246.710938 C 253.628906 246.445312 253.933594 246.25 254.226562 246.027344 C 258.085938 243.054688 253.796875 236.964844 251.296875 234.464844 C 248.898438 232.058594 246.34375 229.808594 243.679688 227.722656 C 243.039062 227.222656 242.359375 226.691406 242.109375 225.914062 C 242.097656 225.886719 242.097656 225.84375 242.082031 225.816406 C 241.472656 225.273438 240.890625 224.707031 240.335938 224.105469 C 238.847656 222.496094 237.558594 220.675781 236.546875 218.726562 C 235.976562 217.628906 235.492188 216.488281 235.089844 215.308594 C 235.03125 215.128906 235.308594 215.042969 235.378906 215.226562 C 236.074219 217.28125 237.058594 219.242188 238.28125 221.050781 C 239.347656 222.621094 240.597656 224.066406 242 225.34375 C 241.984375 225.179688 241.984375 225.011719 241.984375 224.84375 C 242.027344 221.648438 244 219.160156 245.121094 216.308594 C 246.039062 214 246.261719 211.472656 246.34375 208.996094 C 246.414062 207.050781 246.398438 205.0625 245.898438 203.171875 C 245.414062 201.339844 244.46875 199.667969 243.816406 197.890625 C 242.207031 193.511719 242.429688 188.507812 244.332031 184.253906 C 246.234375 180 249.035156 176.050781 250.230469 171.492188 C 251.105469 168.144531 250.980469 164.445312 252.726562 161.46875 C 253.214844 160.648438 253.824219 159.898438 254.308594 159.078125 L 253.960938 159.359375 L 253.683594 159.523438 C 253.65625 159.539062 253.628906 159.550781 253.617188 159.566406 L 253.574219 159.59375 C 253.546875 159.609375 253.503906 159.636719 253.492188 159.636719 C 253.449219 159.648438 253.394531 159.675781 253.351562 159.691406 C 253.324219 159.703125 253.296875 159.703125 253.269531 159.703125 C 253.253906 159.703125 253.242188 159.691406 253.226562 159.675781 L 253.199219 159.648438 L 253.144531 159.578125 L 252.949219 159.300781 C 252.824219 159.121094 252.699219 158.925781 252.574219 158.746094 C 252.339844 158.371094 252.117188 157.96875 251.910156 157.5625 C 251.714844 157.160156 251.535156 156.742188 251.382812 156.3125 C 251.230469 155.882812 251.105469 155.453125 251.007812 155.007812 L 250.867188 154.394531 L 250.742188 153.785156 C 250.660156 153.378906 250.578125 152.964844 250.492188 152.53125 C 250.355469 151.683594 250.269531 150.792969 250.285156 149.90625 C 250.296875 149.460938 250.328125 149.015625 250.382812 148.585938 C 250.4375 148.152344 250.519531 147.707031 250.617188 147.292969 C 250.714844 146.859375 250.839844 146.445312 250.964844 146.039062 C 251.089844 145.636719 251.242188 145.234375 251.410156 144.832031 C 251.726562 144.039062 252.089844 143.289062 252.492188 142.550781 C 252.894531 141.816406 253.324219 141.105469 253.78125 140.410156 L 254.519531 140.800781 C 254.199219 141.550781 253.894531 142.300781 253.617188 143.050781 C 253.339844 143.800781 253.074219 144.566406 252.867188 145.332031 C 252.4375 146.847656 252.1875 148.390625 252.253906 149.890625 C 252.296875 150.640625 252.410156 151.378906 252.574219 152.144531 C 252.65625 152.519531 252.753906 152.90625 252.851562 153.296875 L 253.15625 154.464844 C 253.253906 154.8125 253.378906 155.171875 253.519531 155.507812 C 253.65625 155.855469 253.808594 156.1875 253.976562 156.507812 C 254.144531 156.828125 254.335938 157.148438 254.53125 157.46875 C 254.628906 157.621094 254.726562 157.757812 254.835938 157.910156 C 254.835938 157.910156 254.835938 157.910156 254.835938 157.898438 C 258.460938 161.972656 262.734375 161.816406 268.796875 162.429688 C 272.824219 162.832031 276.679688 164.390625 279.804688 166.863281 C 282.289062 168.835938 284.964844 171.714844 288.378906 170.9375 C 287.921875 169.714844 287.035156 168.683594 285.894531 168.03125 C 285.730469 167.933594 285.882812 167.683594 286.046875 167.78125 C 287.257812 168.460938 288.1875 169.574219 288.671875 170.867188 C 288.671875 170.867188 288.6875 170.867188 288.6875 170.867188 C 288.964844 170.785156 289.242188 170.6875 289.40625 170.464844 C 289.628906 170.171875 289.644531 169.753906 289.867188 169.476562 C 289.824219 169.367188 289.78125 169.242188 289.726562 169.128906 C 289.503906 168.671875 289.199219 168.238281 288.851562 167.851562 C 288.074219 166.988281 287.214844 165.972656 286.230469 165.363281 C 285.953125 165.183594 285.632812 165.027344 285.453125 164.738281 C 285.273438 164.445312 285.328125 164 285.644531 163.890625 C 285.785156 163.832031 285.9375 163.859375 286.078125 163.917969 C 286.785156 164.207031 287.269531 165.417969 287.796875 165.972656 C 288.617188 166.820312 289.394531 167.710938 290.128906 168.628906 C 290.269531 168.796875 290.40625 168.976562 290.515625 169.171875 C 290.699219 169.15625 290.890625 169.15625 291.074219 169.144531 C 292.03125 169.074219 292.890625 168.378906 293.292969 167.53125 C 293.460938 167.183594 293.460938 166.808594 293.597656 166.476562 C 293.808594 166.003906 294.292969 165.65625 294.429688 165.152344 C 294.554688 164.710938 294.417969 164.222656 294.320312 163.777344 C 294.179688 163.167969 293.972656 162.582031 293.722656 162.011719 C 293.167969 160.773438 292.433594 159.636719 291.640625 158.550781 C 290.890625 157.535156 290.101562 156.5625 289.324219 155.5625 C 288.089844 153.976562 286.796875 152.449219 285.464844 150.949219 C 284.230469 149.542969 283.164062 148.015625 281.859375 146.695312 C 279.636719 144.429688 277.761719 141.855469 275.738281 139.421875 C 274.417969 137.839844 273.03125 136.308594 271.464844 134.960938 C 271.367188 134.878906 271.269531 134.792969 271.171875 134.710938 C 270.3125 134.003906 269.410156 133.347656 268.4375 132.792969 C 267.300781 132.140625 266.5625 132.085938 267.828125 131.070312 C 268.5625 130.472656 269.171875 129.75 269.671875 128.941406 C 270.003906 128.398438 270.296875 127.84375 270.546875 127.261719 C 271.15625 125.800781 271.53125 124.257812 271.894531 122.730469 C 272.019531 122.1875 272.15625 121.628906 272.046875 121.089844 C 271.933594 120.546875 271.519531 120.019531 270.976562 119.976562 C 270.5625 119.949219 270.171875 120.183594 269.824219 120.421875 C 267.992188 121.671875 266.257812 123.214844 264.996094 125.023438 C 264.109375 126.300781 263.457031 127.71875 263.175781 129.261719 C 263.121094 129.609375 263.066406 129.972656 262.832031 130.234375 C 262.457031 130.667969 261.804688 130.386719 261.347656 130.277344 C 260.511719 130.070312 259.679688 129.902344 258.832031 129.777344 C 257.140625 129.527344 255.433594 129.429688 253.726562 129.527344 C 246.71875 129.902344 239.488281 132.585938 233.9375 136.894531 C 226.929688 142.34375 222.042969 149.878906 215.257812 155.5625 C 213.773438 156.800781 212.21875 157.996094 210.425781 158.746094 C 208.804688 159.425781 207.039062 159.703125 205.390625 160.289062 C 199.03125 162.539062 195.1875 167.628906 188.511719 168.519531 C 188.015625 168.585938 187.515625 168.628906 186.988281 168.644531 C 179.785156 168.867188 172.652344 167.390625 165.835938 165.195312 C 154.777344 161.652344 142.8125 157.703125 131.820312 161.46875 C 128.65625 162.554688 125.546875 164.429688 122.730469 166.820312 C 121.261719 168.058594 119.84375 169.476562 118.554688 170.980469 Z M 292.085938 163.136719 C 292.238281 162.945312 292.503906 162.832031 292.765625 162.847656 C 292.847656 162.847656 292.917969 162.875 293 162.902344 C 293.320312 163.027344 293.292969 163.554688 293.222656 163.820312 C 293.125 164.195312 292.875 164.542969 292.835938 164.933594 C 292.808594 165.167969 292.863281 165.433594 293 165.625 C 293.085938 165.738281 293.25 165.878906 293.28125 166.015625 C 293.308594 166.113281 293.25 166.292969 293.15625 166.347656 C 293.03125 166.417969 292.90625 166.292969 292.835938 166.210938 C 292.722656 166.097656 292.640625 165.945312 292.570312 165.792969 C 292.320312 165.308594 292.085938 164.792969 291.976562 164.265625 C 291.863281 163.890625 291.835938 163.445312 292.085938 163.136719 Z M 246.789062 276.222656 C 246.96875 276.164062 247.050781 276.457031 246.871094 276.511719 C 244.898438 277.109375 242.417969 276.277344 241.582031 274.304688 C 241.375 273.804688 241.277344 273.261719 241.363281 272.734375 C 241.390625 272.550781 241.679688 272.539062 241.652344 272.734375 C 241.527344 273.648438 241.902344 274.554688 242.539062 275.207031 C 243.222656 275.914062 244.191406 276.320312 245.179688 276.402344 C 245.71875 276.429688 246.261719 276.386719 246.789062 276.222656 Z M 243.125 239.273438 C 244.664062 239.789062 246.328125 240.566406 247.023438 242.152344 C 247.550781 243.375 247.523438 245.460938 249.1875 245.722656 C 250.160156 245.875 251.144531 245.488281 252.074219 245.890625 C 252.253906 245.960938 252.101562 246.222656 251.921875 246.140625 C 251.089844 245.777344 250.160156 246.113281 249.300781 246.027344 C 248.535156 245.960938 247.941406 245.542969 247.59375 244.863281 C 247.257812 244.207031 247.148438 243.472656 246.925781 242.777344 C 246.675781 241.996094 246.261719 241.34375 245.609375 240.84375 C 244.859375 240.246094 243.941406 239.871094 243.027344 239.566406 C 242.875 239.496094 242.945312 239.21875 243.125 239.273438 Z M 246.441406 140.757812 C 244.179688 142.023438 242.097656 143.59375 240.140625 145.277344 C 237.960938 147.152344 235.933594 149.195312 234.035156 151.351562 C 232.117188 153.503906 230.3125 155.769531 228.675781 158.148438 C 227.191406 160.273438 225.816406 162.484375 224.664062 164.820312 C 223.765625 166.628906 222.945312 168.53125 222.570312 170.535156 C 222.527344 170.726562 222.5 170.921875 222.472656 171.105469 C 222.445312 171.285156 222.152344 171.296875 222.183594 171.105469 C 222.445312 169.15625 223.179688 167.28125 224 165.5 C 225.082031 163.195312 226.402344 160.984375 227.816406 158.871094 C 229.425781 156.464844 231.203125 154.171875 233.089844 151.988281 C 234.992188 149.792969 237.003906 147.695312 239.167969 145.75 C 241.152344 143.984375 243.25 142.316406 245.539062 140.953125 C 245.789062 140.800781 246.039062 140.660156 246.289062 140.523438 C 246.453125 140.410156 246.605469 140.675781 246.441406 140.757812 Z M 265.910156 132.042969 C 265.871094 132.085938 265.816406 132.140625 265.746094 132.140625 C 265.605469 132.167969 265.496094 132 265.507812 131.847656 C 265.535156 131.707031 265.632812 131.582031 265.71875 131.472656 C 265.757812 131.417969 265.800781 131.359375 265.84375 131.292969 C 266.105469 130.792969 266.035156 130.054688 266.0625 129.527344 C 266.160156 127.398438 267.214844 125.566406 268.660156 124.0625 C 269.019531 123.6875 270.503906 121.964844 270.9375 122.507812 C 271.324219 122.992188 270.421875 124.550781 270.242188 125.023438 C 270.046875 125.523438 269.992188 126.023438 269.839844 126.550781 C 269.171875 128.832031 267.589844 130.445312 265.910156 132.042969 Z M 290.65625 161.875 C 290.796875 161.75 291.003906 161.957031 290.863281 162.082031 C 289.878906 163.011719 289.988281 164.597656 290.863281 165.558594 C 290.988281 165.695312 290.78125 165.90625 290.65625 165.765625 C 289.671875 164.679688 289.546875 162.902344 290.65625 161.875 Z M 283.371094 163.292969 C 283.605469 162.945312 283.980469 162.761719 284.410156 162.722656 C 284.605469 162.707031 284.605469 163 284.410156 163.011719 C 283.660156 163.070312 283.316406 163.792969 283.425781 164.488281 C 283.566406 165.363281 284.273438 166.128906 285.023438 166.558594 C 285.1875 166.65625 285.035156 166.90625 284.871094 166.808594 C 284.007812 166.308594 283.21875 165.417969 283.121094 164.402344 C 283.078125 164.015625 283.148438 163.609375 283.371094 163.292969 Z M 277.195312 145.277344 C 278.914062 147.5 280.832031 149.558594 282.816406 151.546875 C 284.535156 153.28125 286.296875 154.980469 287.894531 156.8125 C 288.753906 157.816406 289.574219 158.855469 290.296875 159.96875 C 290.40625 160.136719 290.144531 160.273438 290.046875 160.121094 C 288.753906 158.132812 287.160156 156.367188 285.507812 154.6875 C 283.71875 152.851562 281.871094 151.085938 280.136719 149.210938 C 279.027344 148.015625 277.972656 146.777344 276.972656 145.484375 C 276.875 145.34375 277.082031 145.125 277.195312 145.277344 Z M 273.476562 144.332031 C 272.753906 144.148438 272.449219 143.34375 272.144531 142.71875 C 272.058594 142.550781 271.976562 142.371094 271.960938 142.191406 C 271.960938 142.164062 271.960938 142.121094 271.976562 142.105469 C 271.992188 142.078125 272.019531 142.066406 272.046875 142.066406 C 272.308594 141.953125 272.574219 141.84375 272.835938 141.773438 C 273.183594 141.691406 273.542969 141.660156 273.890625 141.691406 C 274.65625 141.757812 275.058594 142.257812 275.335938 142.925781 C 275.375 143.023438 275.390625 143.121094 275.40625 143.21875 C 275.445312 143.523438 275.40625 143.859375 275.558594 144.121094 C 275.613281 144.234375 275.75 144.304688 275.820312 144.414062 C 275.890625 144.523438 275.835938 144.71875 275.710938 144.707031 C 275.683594 144.707031 275.652344 144.679688 275.625 144.664062 C 274.972656 144.246094 274.183594 144.511719 273.476562 144.332031 Z M 271.253906 145.527344 C 270.742188 144.636719 270.117188 143.789062 269.3125 143.148438 C 269.160156 143.023438 269.367188 142.816406 269.519531 142.941406 C 270.253906 143.523438 270.839844 144.289062 271.324219 145.082031 C 271.90625 146.027344 272.363281 147.070312 272.699219 148.140625 C 273.378906 150.390625 273.476562 152.921875 272.433594 155.089844 C 271.796875 156.4375 270.742188 157.523438 269.492188 158.316406 C 269.324219 158.414062 269.1875 158.160156 269.339844 158.066406 C 270.4375 157.371094 271.378906 156.453125 272.003906 155.296875 C 272.558594 154.285156 272.835938 153.144531 272.90625 151.988281 C 273.03125 149.738281 272.378906 147.457031 271.253906 145.527344 Z M 239.808594 181.515625 C 239.933594 179.054688 240.183594 176.59375 240.570312 174.160156 C 240.957031 171.714844 241.484375 169.296875 242.136719 166.90625 C 242.789062 164.515625 243.582031 162.164062 244.496094 159.871094 C 245.414062 157.578125 246.453125 155.328125 247.621094 153.144531 C 247.757812 152.878906 247.910156 152.617188 248.050781 152.351562 C 248.148438 152.183594 248.398438 152.335938 248.300781 152.503906 C 247.105469 154.671875 246.039062 156.898438 245.09375 159.175781 C 244.164062 161.441406 243.347656 163.765625 242.664062 166.113281 C 241.984375 168.476562 241.429688 170.882812 241 173.3125 C 240.585938 175.734375 240.292969 178.191406 240.140625 180.640625 C 239.988281 183.101562 239.972656 185.558594 240.097656 188.019531 C 240.113281 188.328125 240.125 188.617188 240.152344 188.925781 C 240.167969 189.117188 239.875 189.117188 239.863281 188.925781 C 239.710938 186.464844 239.695312 183.988281 239.808594 181.515625 Z M 224.804688 221.980469 C 225.875 224.066406 227.21875 225.996094 228.800781 227.734375 C 230.382812 229.460938 232.175781 230.960938 234.144531 232.210938 C 235.253906 232.921875 236.421875 233.53125 237.613281 234.058594 C 237.792969 234.128906 237.640625 234.394531 237.460938 234.3125 C 235.296875 233.367188 233.285156 232.113281 231.453125 230.640625 C 229.632812 229.167969 227.996094 227.445312 226.621094 225.539062 C 225.84375 224.453125 225.136719 223.328125 224.542969 222.132812 C 224.457031 221.953125 224.707031 221.800781 224.804688 221.980469 Z M 221.53125 174.160156 C 221.375 174.050781 221.515625 173.800781 221.683594 173.910156 C 224.417969 175.789062 226.996094 177.902344 229.355469 180.222656 C 231.714844 182.53125 233.882812 185.046875 235.824219 187.742188 C 236.921875 189.257812 237.933594 190.828125 238.878906 192.441406 C 238.972656 192.609375 238.722656 192.761719 238.628906 192.59375 C 236.976562 189.746094 235.0625 187.046875 232.953125 184.53125 C 230.828125 182.015625 228.496094 179.679688 225.984375 177.566406 C 224.554688 176.34375 223.070312 175.21875 221.53125 174.160156 Z M 137.941406 253.855469 C 138.496094 252.4375 138.84375 250.9375 139.148438 249.449219 C 139.496094 247.835938 139.730469 246.195312 139.703125 244.542969 C 139.703125 244.136719 139.675781 243.734375 139.636719 243.347656 C 139.621094 243.152344 139.914062 243.152344 139.925781 243.347656 C 140.078125 244.957031 139.953125 246.570312 139.691406 248.15625 C 139.550781 248.960938 139.386719 249.753906 139.203125 250.546875 C 139.023438 251.296875 138.859375 252.0625 138.621094 252.796875 C 137.789062 255.480469 136.097656 257.984375 136.082031 260.859375 C 136.066406 263.53125 137.664062 265.960938 139.84375 267.378906 C 139.96875 267.464844 139.996094 267.574219 140.050781 267.714844 C 140.132812 267.882812 140.203125 268.0625 140.289062 268.230469 C 140.441406 268.546875 140.59375 268.855469 140.746094 269.160156 C 141.078125 269.800781 141.425781 270.4375 141.785156 271.0625 C 142.535156 272.355469 143.328125 273.621094 144.132812 274.875 C 145.714844 277.363281 147.324219 279.835938 148.542969 282.53125 C 148.683594 282.839844 148.808594 283.144531 148.933594 283.449219 C 149.003906 283.628906 148.726562 283.699219 148.640625 283.535156 C 147.53125 280.808594 145.949219 278.292969 144.367188 275.820312 C 142.785156 273.332031 141.148438 270.84375 139.925781 268.160156 C 139.855469 268.007812 139.800781 267.851562 139.71875 267.699219 C 139.636719 267.5625 139.453125 267.492188 139.328125 267.394531 C 139.078125 267.214844 138.828125 267.019531 138.609375 266.824219 C 138.121094 266.40625 137.691406 265.921875 137.316406 265.40625 C 136.554688 264.363281 136.027344 263.128906 135.847656 261.847656 C 135.472656 259.011719 136.957031 256.425781 137.941406 253.855469 Z M 137.941406 253.855469 " fill-opacity="1" fill-rule="nonzero"/></g><path fill="#534741" d="M 292.753906 162.847656 C 292.835938 162.847656 292.90625 162.875 292.988281 162.902344 C 293.308594 163.027344 293.28125 163.554688 293.210938 163.820312 C 293.113281 164.195312 292.863281 164.542969 292.820312 164.933594 C 292.792969 165.167969 292.847656 165.433594 292.988281 165.625 C 293.070312 165.738281 293.238281 165.878906 293.265625 166.015625 C 293.292969 166.113281 293.238281 166.292969 293.140625 166.347656 C 293.015625 166.417969 292.890625 166.292969 292.820312 166.210938 C 292.710938 166.097656 292.628906 165.945312 292.558594 165.792969 C 292.308594 165.308594 292.070312 164.792969 291.960938 164.265625 C 291.878906 163.875 291.851562 163.429688 292.101562 163.125 C 292.238281 162.929688 292.503906 162.832031 292.753906 162.847656 Z M 289.769531 169.089844 C 289.824219 169.199219 289.867188 169.308594 289.90625 169.4375 C 289.921875 169.40625 289.949219 169.378906 289.976562 169.367188 C 290.128906 169.214844 290.335938 169.171875 290.558594 169.144531 C 290.449219 168.949219 290.308594 168.769531 290.171875 168.601562 C 289.433594 167.683594 288.65625 166.792969 287.839844 165.945312 C 287.3125 165.390625 286.824219 164.179688 286.117188 163.890625 C 285.980469 163.832031 285.828125 163.804688 285.6875 163.863281 C 285.367188 163.972656 285.328125 164.429688 285.492188 164.710938 C 285.675781 165 285.980469 165.152344 286.269531 165.335938 C 287.257812 165.945312 288.128906 166.960938 288.894531 167.824219 C 289.242188 168.199219 289.558594 168.628906 289.769531 169.089844 Z M 239.128906 275.191406 L 238.808594 275.625 L 235.933594 279.613281 L 240.347656 292.472656 L 244.152344 282.53125 L 244.152344 282.519531 Z M 217.867188 285.5625 L 211.71875 287.257812 L 211.675781 287.273438 L 211.953125 291.679688 L 224.972656 291.984375 C 223.859375 290.398438 222.015625 288.539062 218.753906 286.175781 C 218.460938 285.980469 218.171875 285.769531 217.867188 285.5625 Z M 151.707031 287.632812 L 151.792969 287.953125 L 152.804688 291.597656 C 158.050781 292.917969 162.421875 293.582031 163.449219 291.832031 C 162.449219 290.121094 162.214844 288.761719 158.8125 286.023438 C 158.71875 286.105469 158.578125 286.175781 158.410156 286.257812 C 157.300781 286.785156 154.625 287.21875 151.707031 287.632812 Z M 108.410156 275.734375 L 106.855469 280.378906 C 108.269531 284.605469 110.796875 288.066406 113.988281 289.46875 C 114.695312 289.511719 115.695312 282.199219 115.304688 280.710938 C 115.265625 280.542969 115.210938 280.460938 115.125 280.449219 C 113.433594 281.394531 111.03125 279.113281 108.410156 275.734375 Z M 273.476562 144.332031 C 274.183594 144.511719 274.972656 144.246094 275.625 144.664062 C 275.652344 144.679688 275.683594 144.707031 275.710938 144.707031 C 275.835938 144.71875 275.890625 144.523438 275.820312 144.414062 C 275.75 144.304688 275.625 144.234375 275.558594 144.121094 C 275.417969 143.859375 275.445312 143.523438 275.40625 143.21875 C 275.390625 143.121094 275.363281 143.011719 275.335938 142.925781 C 275.058594 142.246094 274.65625 141.757812 273.890625 141.691406 C 273.542969 141.648438 273.183594 141.691406 272.835938 141.773438 C 272.558594 141.84375 272.308594 141.953125 272.046875 142.066406 C 272.019531 142.078125 271.992188 142.09375 271.976562 142.105469 C 271.960938 142.132812 271.960938 142.164062 271.960938 142.191406 C 271.976562 142.371094 272.058594 142.550781 272.144531 142.71875 C 272.449219 143.328125 272.738281 144.136719 273.476562 144.332031 Z M 273.476562 144.332031 " fill-opacity="1" fill-rule="nonzero"/><path fill="#ad7440" d="M 265.910156 132.042969 C 265.871094 132.085938 265.816406 132.140625 265.746094 132.140625 C 265.605469 132.167969 265.496094 132 265.507812 131.847656 C 265.535156 131.707031 265.632812 131.582031 265.71875 131.472656 C 265.757812 131.417969 265.800781 131.359375 265.84375 131.292969 C 266.105469 130.792969 266.035156 130.054688 266.0625 129.527344 C 266.160156 127.398438 267.214844 125.566406 268.660156 124.0625 C 269.019531 123.6875 270.503906 121.964844 270.9375 122.507812 C 271.324219 122.992188 270.421875 124.550781 270.242188 125.023438 C 270.046875 125.523438 269.992188 126.023438 269.839844 126.550781 C 269.171875 128.832031 267.589844 130.445312 265.910156 132.042969 Z M 113.417969 203.089844 C 111.976562 199.449219 111.296875 195.527344 110.90625 191.636719 C 110.710938 193.277344 110.628906 194.929688 110.558594 196.582031 C 110.199219 204.3125 110.019531 212.640625 113.613281 219.101562 C 114.765625 221.175781 116.820312 223.371094 117.777344 225.84375 C 118.054688 226.554688 118.25 227.277344 118.289062 228.042969 C 118.457031 230.363281 117.304688 233.019531 116.042969 234.921875 C 114.472656 237.300781 111.53125 238.425781 110.808594 241.414062 C 110.628906 242.121094 110.617188 242.859375 110.589844 243.582031 C 110.53125 245.902344 110.742188 248.324219 110.53125 250.628906 C 110.378906 252.3125 109.601562 254.050781 109.160156 255.691406 C 108.574219 257.832031 107.949219 259.945312 107.367188 262.085938 C 107.0625 263.210938 106.703125 264.335938 106.1875 265.378906 C 105.996094 265.78125 105.703125 266.269531 105.4375 266.796875 C 104.816406 268.019531 104.289062 269.453125 105.273438 270.382812 C 106.160156 271.21875 107.6875 271.175781 108.449219 272.132812 C 108.851562 272.636719 108.949219 273.332031 108.851562 273.957031 C 108.757812 274.59375 108.589844 275.164062 108.4375 275.734375 C 111.058594 279.113281 113.460938 281.40625 115.167969 280.449219 C 115.25 280.449219 115.304688 280.542969 115.347656 280.710938 C 115.722656 278.585938 115.710938 276.457031 115.597656 274.246094 C 115.488281 272.121094 114.597656 269.867188 114.195312 267.742188 C 113.628906 264.726562 113.585938 261.613281 113.808594 258.554688 C 113.972656 256.289062 113.710938 252.214844 115.429688 250.464844 C 115.777344 250.117188 116.207031 249.851562 116.597656 249.558594 C 120.511719 246.597656 120.621094 240.773438 123.257812 236.882812 C 125.230469 233.964844 127.726562 231.585938 129.585938 228.570312 C 131.488281 225.484375 131.890625 222.925781 131.40625 220.660156 C 129.601562 218.851562 127.574219 217.324219 125.660156 216.171875 C 124.132812 215.253906 122.535156 214.417969 121.09375 213.363281 C 117.539062 210.816406 115 207.105469 113.417969 203.089844 Z M 216.964844 227.320312 C 216.421875 225.789062 215.824219 224.273438 214.894531 222.953125 C 213.855469 221.480469 212.316406 220.367188 210.496094 220.132812 C 209.550781 220.007812 208.582031 220.144531 207.707031 220.507812 C 207.527344 220.578125 207.457031 220.296875 207.625 220.214844 C 209.273438 219.535156 211.148438 219.699219 212.703125 220.550781 C 214.464844 221.507812 215.574219 223.21875 216.378906 224.996094 C 216.753906 225.832031 217.074219 226.691406 217.367188 227.554688 C 217.492188 227.652344 217.601562 227.75 217.726562 227.832031 C 218.628906 230.085938 220.140625 232.015625 222.042969 233.226562 C 221.988281 234.367188 221.808594 235.589844 221.472656 236.894531 C 220.558594 240.550781 218.796875 243.847656 217.726562 247.445312 C 216.976562 249.992188 217.101562 252.671875 216.769531 255.21875 C 217.019531 255.816406 217.15625 256.484375 217.15625 257.191406 C 217.171875 259.664062 215.605469 261.777344 214.535156 263.890625 C 213.3125 266.308594 212.964844 269.105469 212.660156 271.789062 C 212.34375 274.527344 212.480469 277.207031 213.300781 279.570312 C 213.953125 281.460938 215.046875 283.15625 216.714844 284.492188 C 217.128906 284.828125 217.992188 285.4375 218.710938 286.160156 C 218.433594 285.953125 218.144531 285.742188 217.839844 285.535156 L 211.691406 287.230469 C 211.691406 287.21875 211.691406 287.21875 211.675781 287.203125 C 211.203125 286.023438 210.539062 284.617188 209.496094 283.964844 C 208.539062 283.367188 207.332031 283.644531 206.625 282.492188 C 206.140625 281.710938 206.054688 280.699219 206.070312 279.738281 C 206.125 276.777344 207.011719 273.773438 207.609375 270.898438 C 208.125 268.394531 208.914062 265.894531 209.121094 263.347656 C 209.359375 260.347656 207.679688 257.121094 209.496094 254.339844 C 209.207031 250.824219 209.511719 246.960938 209.59375 243.484375 C 209.621094 242.429688 209.621094 240.46875 209.734375 238.203125 C 209.914062 234.644531 210.359375 230.320312 211.605469 227.539062 C 211.746094 227.527344 211.882812 227.511719 212.023438 227.5 C 213.617188 227.375 215.269531 227.320312 216.964844 227.320312 Z M 240.363281 224.09375 C 238.878906 222.480469 237.585938 220.660156 236.574219 218.714844 C 236.003906 217.617188 235.519531 216.476562 235.117188 215.292969 C 235.0625 215.113281 235.339844 215.03125 235.40625 215.210938 C 236.101562 217.269531 237.085938 219.226562 238.308594 221.035156 C 239.375 222.605469 240.625 224.050781 242.027344 225.332031 C 242.042969 225.484375 242.070312 225.652344 242.109375 225.804688 C 241.5 225.273438 240.902344 224.707031 240.363281 224.09375 Z M 221.683594 173.910156 C 224.417969 175.789062 226.996094 177.902344 229.355469 180.222656 C 231.714844 182.53125 233.882812 185.046875 235.824219 187.742188 C 236.921875 189.257812 237.933594 190.828125 238.878906 192.441406 C 238.972656 192.609375 238.722656 192.761719 238.628906 192.59375 C 236.976562 189.746094 235.0625 187.046875 232.953125 184.53125 C 230.828125 182.015625 228.496094 179.679688 225.984375 177.566406 C 224.554688 176.371094 223.070312 175.246094 221.542969 174.191406 C 221.375 174.066406 221.53125 173.800781 221.683594 173.910156 Z M 246.441406 140.757812 C 244.179688 142.023438 242.097656 143.59375 240.140625 145.277344 C 237.960938 147.152344 235.933594 149.195312 234.035156 151.351562 C 232.117188 153.503906 230.3125 155.769531 228.675781 158.148438 C 227.191406 160.273438 225.816406 162.484375 224.664062 164.820312 C 223.765625 166.628906 222.945312 168.53125 222.570312 170.535156 C 222.527344 170.726562 222.5 170.921875 222.472656 171.105469 C 222.445312 171.285156 222.152344 171.296875 222.183594 171.105469 C 222.445312 169.15625 223.179688 167.28125 224 165.5 C 225.082031 163.195312 226.402344 160.984375 227.816406 158.871094 C 229.425781 156.464844 231.203125 154.171875 233.089844 151.988281 C 234.992188 149.792969 237.003906 147.695312 239.167969 145.75 C 241.152344 143.984375 243.25 142.316406 245.539062 140.953125 C 245.789062 140.800781 246.039062 140.660156 246.289062 140.523438 C 246.453125 140.410156 246.605469 140.675781 246.441406 140.757812 Z M 157.273438 213.179688 C 158.105469 212.652344 159.023438 212.25 159.953125 211.929688 C 160.132812 211.875 160.214844 212.152344 160.035156 212.222656 C 158.46875 212.738281 156.996094 213.542969 155.832031 214.722656 C 154.679688 215.878906 153.859375 217.308594 153.222656 218.796875 C 153.125 219.003906 153.042969 219.226562 152.957031 219.449219 C 152.75 219.632812 152.570312 219.839844 152.417969 220.0625 C 152.847656 218.878906 153.347656 217.726562 153.984375 216.65625 C 154.816406 215.265625 155.914062 214.058594 157.273438 213.179688 Z M 269.324219 143.148438 C 269.171875 143.023438 269.382812 142.816406 269.535156 142.941406 C 270.269531 143.523438 270.851562 144.289062 271.339844 145.082031 C 271.921875 146.027344 272.378906 147.070312 272.710938 148.140625 C 273.390625 150.390625 273.488281 152.921875 272.449219 155.089844 C 271.808594 156.4375 270.753906 157.523438 269.507812 158.316406 C 269.339844 158.414062 269.199219 158.160156 269.351562 158.066406 C 270.449219 157.371094 271.394531 156.453125 272.019531 155.296875 C 272.574219 154.285156 272.851562 153.144531 272.921875 151.988281 C 273.046875 149.753906 272.378906 147.457031 271.269531 145.527344 C 270.753906 144.636719 270.117188 143.789062 269.324219 143.148438 Z M 284.410156 162.722656 C 284.605469 162.707031 284.605469 163 284.410156 163.011719 C 283.660156 163.070312 283.316406 163.792969 283.425781 164.488281 C 283.566406 165.363281 284.273438 166.128906 285.023438 166.558594 C 285.1875 166.65625 285.035156 166.90625 284.871094 166.808594 C 284.007812 166.308594 283.21875 165.417969 283.121094 164.402344 C 283.078125 164.027344 283.164062 163.609375 283.382812 163.292969 C 283.621094 162.929688 283.980469 162.75 284.410156 162.722656 Z M 290.863281 162.082031 C 289.878906 163.011719 289.988281 164.597656 290.863281 165.558594 C 290.988281 165.695312 290.78125 165.90625 290.65625 165.765625 C 289.671875 164.679688 289.558594 162.902344 290.65625 161.875 C 290.796875 161.734375 291.003906 161.941406 290.863281 162.082031 Z M 277.195312 145.277344 C 278.914062 147.5 280.832031 149.558594 282.816406 151.546875 C 284.535156 153.28125 286.296875 154.980469 287.894531 156.8125 C 288.753906 157.816406 289.574219 158.855469 290.296875 159.96875 C 290.40625 160.136719 290.144531 160.273438 290.046875 160.121094 C 288.753906 158.132812 287.160156 156.367188 285.507812 154.6875 C 283.71875 152.851562 281.871094 151.085938 280.136719 149.210938 C 279.027344 148.015625 277.972656 146.777344 276.972656 145.484375 C 276.875 145.34375 277.082031 145.125 277.195312 145.277344 Z M 285.9375 168.019531 C 285.769531 167.921875 285.925781 167.671875 286.089844 167.765625 C 287.296875 168.449219 288.226562 169.5625 288.714844 170.851562 C 288.617188 170.882812 288.519531 170.910156 288.421875 170.921875 C 287.964844 169.699219 287.074219 168.65625 285.9375 168.019531 Z M 240.585938 174.160156 C 240.972656 171.714844 241.5 169.296875 242.152344 166.90625 C 242.804688 164.515625 243.597656 162.164062 244.511719 159.871094 C 245.425781 157.578125 246.46875 155.328125 247.632812 153.144531 C 247.773438 152.878906 247.925781 152.617188 248.066406 152.351562 C 248.160156 152.183594 248.410156 152.335938 248.3125 152.503906 C 247.121094 154.671875 246.050781 156.898438 245.109375 159.175781 C 244.179688 161.441406 243.359375 163.765625 242.679688 166.113281 C 242 168.476562 241.445312 170.882812 241.015625 173.3125 C 240.597656 175.734375 240.304688 178.191406 240.152344 180.640625 C 240 183.101562 239.988281 185.558594 240.113281 188.019531 C 240.125 188.328125 240.140625 188.617188 240.167969 188.925781 C 240.183594 189.117188 239.890625 189.117188 239.875 188.925781 C 239.722656 186.449219 239.710938 183.976562 239.820312 181.5 C 239.933594 179.054688 240.195312 176.59375 240.585938 174.160156 Z M 243.125 239.273438 C 244.664062 239.789062 246.328125 240.566406 247.023438 242.152344 C 247.550781 243.375 247.523438 245.460938 249.1875 245.722656 C 250.160156 245.875 251.144531 245.488281 252.074219 245.890625 C 252.253906 245.960938 252.101562 246.222656 251.921875 246.140625 C 251.089844 245.777344 250.160156 246.113281 249.300781 246.027344 C 248.535156 245.960938 247.941406 245.542969 247.59375 244.863281 C 247.257812 244.207031 247.148438 243.472656 246.925781 242.777344 C 246.675781 241.996094 246.261719 241.34375 245.609375 240.84375 C 244.859375 240.246094 243.941406 239.871094 243.027344 239.566406 C 242.875 239.496094 242.945312 239.21875 243.125 239.273438 Z M 253.710938 159.511719 C 253.683594 159.523438 253.65625 159.539062 253.644531 159.550781 L 253.601562 159.578125 C 253.574219 159.59375 253.53125 159.621094 253.519531 159.621094 C 253.476562 159.636719 253.421875 159.664062 253.378906 159.675781 C 253.351562 159.691406 253.324219 159.691406 253.296875 159.691406 C 253.28125 159.691406 253.269531 159.675781 253.253906 159.664062 L 253.226562 159.636719 L 253.171875 159.566406 L 252.976562 159.289062 C 252.851562 159.105469 252.726562 158.914062 252.601562 158.730469 C 252.367188 158.355469 252.144531 157.953125 251.9375 157.550781 C 251.742188 157.148438 251.5625 156.730469 251.410156 156.300781 C 251.257812 155.867188 251.132812 155.4375 251.035156 154.992188 L 250.894531 154.382812 L 250.769531 153.769531 C 250.6875 153.367188 250.605469 152.949219 250.519531 152.519531 C 250.382812 151.671875 250.300781 150.78125 250.3125 149.890625 C 250.328125 149.445312 250.355469 149 250.410156 148.570312 C 250.464844 148.140625 250.546875 147.695312 250.644531 147.277344 C 250.742188 146.847656 250.867188 146.429688 250.992188 146.027344 C 251.117188 145.625 251.269531 145.21875 251.4375 144.816406 C 251.757812 144.023438 252.117188 143.273438 252.519531 142.539062 C 252.921875 141.800781 253.351562 141.09375 253.808594 140.398438 L 254.546875 140.785156 C 254.226562 141.535156 253.921875 142.289062 253.644531 143.039062 C 253.367188 143.789062 253.101562 144.554688 252.894531 145.316406 C 252.464844 146.832031 252.214844 148.375 252.285156 149.878906 C 252.324219 150.628906 252.4375 151.363281 252.601562 152.128906 C 252.6875 152.503906 252.78125 152.894531 252.878906 153.28125 L 253.183594 154.449219 C 253.28125 154.796875 253.40625 155.160156 253.546875 155.492188 C 253.683594 155.839844 253.835938 156.175781 254.003906 156.492188 C 254.171875 156.8125 254.363281 157.132812 254.558594 157.453125 C 254.65625 157.605469 254.753906 157.746094 254.863281 157.898438 C 254.863281 157.898438 254.863281 157.910156 254.878906 157.910156 L 255.046875 158.132812 L 255.085938 158.191406 L 255.113281 158.21875 C 255.128906 158.230469 255.128906 158.230469 255.128906 158.257812 C 255.128906 158.273438 255.113281 158.300781 255.101562 158.328125 C 255.085938 158.355469 255.046875 158.398438 255.015625 158.441406 C 255.003906 158.453125 254.976562 158.496094 254.949219 158.507812 L 254.90625 158.550781 C 254.890625 158.566406 254.863281 158.59375 254.851562 158.605469 L 254.628906 158.828125 L 254.324219 159.066406 L 253.976562 159.34375 Z M 246.871094 276.5 C 244.898438 277.097656 242.417969 276.261719 241.582031 274.289062 C 241.375 273.789062 241.277344 273.246094 241.363281 272.71875 C 241.390625 272.539062 241.679688 272.523438 241.652344 272.71875 C 241.527344 273.636719 241.902344 274.539062 242.539062 275.191406 C 243.222656 275.902344 244.191406 276.304688 245.179688 276.386719 C 245.734375 276.429688 246.273438 276.386719 246.800781 276.222656 C 246.980469 276.164062 247.050781 276.445312 246.871094 276.5 Z M 224.804688 221.980469 C 225.875 224.066406 227.21875 225.996094 228.800781 227.734375 C 230.382812 229.460938 232.175781 230.960938 234.144531 232.210938 C 235.253906 232.921875 236.421875 233.53125 237.613281 234.058594 C 237.792969 234.128906 237.640625 234.394531 237.460938 234.3125 C 235.296875 233.367188 233.285156 232.113281 231.453125 230.640625 C 229.632812 229.167969 227.996094 227.445312 226.621094 225.539062 C 225.84375 224.453125 225.136719 223.328125 224.542969 222.132812 C 224.457031 221.953125 224.707031 221.800781 224.804688 221.980469 Z M 139.164062 249.449219 C 139.511719 247.835938 139.746094 246.195312 139.71875 244.542969 C 139.71875 244.136719 139.691406 243.734375 139.648438 243.347656 C 139.636719 243.152344 139.925781 243.152344 139.941406 243.347656 C 140.09375 244.957031 139.96875 246.570312 139.703125 248.15625 C 139.566406 248.960938 139.398438 249.753906 139.21875 250.546875 C 139.039062 251.296875 138.871094 252.0625 138.636719 252.796875 C 137.804688 255.480469 136.109375 257.984375 136.097656 260.859375 C 136.082031 263.53125 137.679688 265.960938 139.855469 267.378906 C 139.980469 267.464844 140.007812 267.574219 140.066406 267.714844 C 140.148438 267.882812 140.21875 268.0625 140.300781 268.230469 C 140.453125 268.546875 140.605469 268.855469 140.757812 269.160156 C 141.09375 269.800781 141.4375 270.4375 141.800781 271.0625 C 142.550781 272.355469 143.339844 273.621094 144.144531 274.875 C 145.726562 277.363281 147.335938 279.835938 148.558594 282.53125 C 148.695312 282.839844 148.820312 283.144531 148.945312 283.449219 C 149.015625 283.628906 148.738281 283.699219 148.65625 283.535156 C 147.546875 280.808594 145.964844 278.292969 144.382812 275.820312 C 142.800781 273.332031 141.160156 270.84375 139.941406 268.160156 C 139.871094 268.007812 139.816406 267.851562 139.730469 267.699219 C 139.648438 267.5625 139.46875 267.492188 139.34375 267.394531 C 139.09375 267.214844 138.84375 267.019531 138.621094 266.824219 C 138.136719 266.40625 137.707031 265.921875 137.332031 265.40625 C 136.566406 264.363281 136.039062 263.128906 135.859375 261.847656 C 135.457031 259 136.941406 256.414062 137.941406 253.855469 C 138.496094 252.4375 138.84375 250.9375 139.164062 249.449219 Z M 139.164062 249.449219 " fill-opacity="1" fill-rule="nonzero"/></svg>